<?xml version="1.0" encoding="UTF-8" standalone="no"?>
<!-- Created with Inkscape (http://www.inkscape.org/) -->

<svg
   xmlns:dc="http://purl.org/dc/elements/1.1/"
   xmlns:cc="http://creativecommons.org/ns#"
   xmlns:rdf="http://www.w3.org/1999/02/22-rdf-syntax-ns#"
   xmlns:svg="http://www.w3.org/2000/svg"
   xmlns="http://www.w3.org/2000/svg"
   xmlns:xlink="http://www.w3.org/1999/xlink"
   xmlns:sodipodi="http://sodipodi.sourceforge.net/DTD/sodipodi-0.dtd"
   xmlns:inkscape="http://www.inkscape.org/namespaces/inkscape"
   width="19.528105mm"
   height="33.660721mm"
   viewBox="0 0 19.528105 33.660721"
   version="1.1"
   id="svg8"
   inkscape:version="0.92.5 (2060ec1f9f, 2020-04-08)"
   sodipodi:docname="fire.svg"
   inkscape:export-filename="../Assets/Sprites/fire.png"
   inkscape:export-xdpi="150"
   inkscape:export-ydpi="150">
  <defs
     id="defs2">
    <linearGradient
       id="linearGradient938"
       inkscape:collect="always">
      <stop
         id="stop934"
         offset="0"
         style="stop-color:#ffffff;stop-opacity:0.58878505" />
      <stop
         id="stop936"
         offset="1"
         style="stop-color:#ffffff;stop-opacity:0;" />
    </linearGradient>
    <linearGradient
       id="linearGradient932"
       inkscape:collect="always">
      <stop
         id="stop928"
         offset="0"
         style="stop-color:#ffffff;stop-opacity:0.58878505" />
      <stop
         id="stop930"
         offset="1"
         style="stop-color:#ffffff;stop-opacity:0;" />
    </linearGradient>
    <linearGradient
       inkscape:collect="always"
       id="linearGradient888">
      <stop
         style="stop-color:#ffffff;stop-opacity:0.58878505"
         offset="0"
         id="stop884" />
      <stop
         style="stop-color:#ffffff;stop-opacity:0;"
         offset="1"
         id="stop886" />
    </linearGradient>
    <linearGradient
       inkscape:collect="always"
       xlink:href="#linearGradient888"
       id="linearGradient926"
       gradientUnits="userSpaceOnUse"
       gradientTransform="matrix(1,0,0,0.47540984,116.5111,46.190469)"
       x1="-77.595276"
       y1="27.322918"
       x2="-77.595276"
       y2="58.855659" />
    <linearGradient
       inkscape:collect="always"
       xlink:href="#linearGradient938"
       id="linearGradient957"
       gradientUnits="userSpaceOnUse"
       gradientTransform="matrix(1,0,0,0.47540984,116.5111,-104.82662)"
       x1="-77.595276"
       y1="27.322918"
       x2="-77.595276"
       y2="58.855659" />
    <linearGradient
       inkscape:collect="always"
       xlink:href="#linearGradient932"
       id="linearGradient959"
       gradientUnits="userSpaceOnUse"
       x1="-77.595276"
       y1="27.322918"
       x2="-77.595276"
       y2="57.72213" />
    <linearGradient
       inkscape:collect="always"
       xlink:href="#linearGradient888"
       id="linearGradient961"
       gradientUnits="userSpaceOnUse"
       gradientTransform="matrix(1,0,0,0.47540984,116.5111,46.190469)"
       x1="-77.595276"
       y1="27.322918"
       x2="-77.595276"
       y2="58.855659" />
    <mask
       maskUnits="userSpaceOnUse"
       id="mask947">
      <g
         id="g955"
         transform="translate(-0.59043723)">
        <rect
           y="-94.237549"
           x="22.531172"
           height="17.930384"
           width="37.200394"
           id="rect949"
           style="opacity:1;fill:url(#linearGradient957);fill-opacity:1;fill-rule:nonzero;stroke:none;stroke-width:1.37899935;stroke-linecap:round;stroke-linejoin:miter;stroke-miterlimit:4;stroke-dasharray:none;stroke-dashoffset:0;stroke-opacity:1;paint-order:stroke markers fill"
           transform="matrix(0,1,1,0,0,0)" />
        <rect
           y="22.273558"
           x="-93.979935"
           height="37.715633"
           width="37.200394"
           id="rect951"
           style="opacity:1;fill:url(#linearGradient959);fill-opacity:1;fill-rule:nonzero;stroke:none;stroke-width:2;stroke-linecap:round;stroke-linejoin:miter;stroke-miterlimit:4;stroke-dasharray:none;stroke-dashoffset:0;stroke-opacity:1;paint-order:stroke markers fill" />
        <rect
           transform="rotate(90)"
           style="opacity:1;fill:url(#linearGradient961);fill-opacity:1;fill-rule:nonzero;stroke:none;stroke-width:1.37899935;stroke-linecap:round;stroke-linejoin:miter;stroke-miterlimit:4;stroke-dasharray:none;stroke-dashoffset:0;stroke-opacity:1;paint-order:stroke markers fill"
           id="rect953"
           width="37.200394"
           height="17.930384"
           x="22.531172"
           y="56.779541" />
      </g>
    </mask>
    <linearGradient
       inkscape:collect="always"
       xlink:href="#linearGradient938"
       id="linearGradient10111"
       gradientUnits="userSpaceOnUse"
       gradientTransform="matrix(1,0,0,0.47540984,116.5111,-104.82662)"
       x1="-77.595276"
       y1="27.322918"
       x2="-77.595276"
       y2="58.855659" />
    <linearGradient
       inkscape:collect="always"
       xlink:href="#linearGradient932"
       id="linearGradient10113"
       gradientUnits="userSpaceOnUse"
       x1="-77.595276"
       y1="27.322918"
       x2="-77.595276"
       y2="57.72213" />
    <linearGradient
       inkscape:collect="always"
       xlink:href="#linearGradient888"
       id="linearGradient10115"
       gradientUnits="userSpaceOnUse"
       gradientTransform="matrix(1,0,0,0.47540984,116.5111,46.190469)"
       x1="-77.595276"
       y1="27.322918"
       x2="-77.595276"
       y2="58.855659" />
    <linearGradient
       inkscape:collect="always"
       xlink:href="#linearGradient938"
       id="linearGradient10117"
       gradientUnits="userSpaceOnUse"
       gradientTransform="matrix(1,0,0,0.47540984,116.5111,-104.82662)"
       x1="-77.595276"
       y1="27.322918"
       x2="-77.595276"
       y2="58.855659" />
    <linearGradient
       inkscape:collect="always"
       xlink:href="#linearGradient932"
       id="linearGradient10119"
       gradientUnits="userSpaceOnUse"
       x1="-77.595276"
       y1="27.322918"
       x2="-77.595276"
       y2="57.72213" />
    <linearGradient
       inkscape:collect="always"
       xlink:href="#linearGradient888"
       id="linearGradient10121"
       gradientUnits="userSpaceOnUse"
       gradientTransform="matrix(1,0,0,0.47540984,116.5111,46.190469)"
       x1="-77.595276"
       y1="27.322918"
       x2="-77.595276"
       y2="58.855659" />
    <linearGradient
       inkscape:collect="always"
       xlink:href="#linearGradient938"
       id="linearGradient10123"
       gradientUnits="userSpaceOnUse"
       gradientTransform="matrix(1,0,0,0.47540984,116.5111,-104.82662)"
       x1="-77.595276"
       y1="27.322918"
       x2="-77.595276"
       y2="58.855659" />
    <linearGradient
       inkscape:collect="always"
       xlink:href="#linearGradient932"
       id="linearGradient10125"
       gradientUnits="userSpaceOnUse"
       x1="-77.595276"
       y1="27.322918"
       x2="-77.595276"
       y2="57.72213" />
    <linearGradient
       inkscape:collect="always"
       xlink:href="#linearGradient888"
       id="linearGradient10127"
       gradientUnits="userSpaceOnUse"
       gradientTransform="matrix(1,0,0,0.47540984,116.5111,46.190469)"
       x1="-77.595276"
       y1="27.322918"
       x2="-77.595276"
       y2="58.855659" />
    <mask
       maskUnits="userSpaceOnUse"
       id="mask10083">
      <g
         transform="translate(-0.59043569)"
         id="g10109">
        <g
           id="g10091">
          <rect
             y="-94.237549"
             x="22.531172"
             height="17.930384"
             width="37.200394"
             id="rect10085"
             style="opacity:1;fill:url(#linearGradient10111);fill-opacity:1;fill-rule:nonzero;stroke:none;stroke-width:1.37899935;stroke-linecap:round;stroke-linejoin:miter;stroke-miterlimit:4;stroke-dasharray:none;stroke-dashoffset:0;stroke-opacity:1;paint-order:stroke markers fill"
             transform="matrix(0,1,1,0,0,0)" />
          <rect
             y="22.273558"
             x="-93.979935"
             height="37.715633"
             width="37.200394"
             id="rect10087"
             style="opacity:1;fill:url(#linearGradient10113);fill-opacity:1;fill-rule:nonzero;stroke:none;stroke-width:2;stroke-linecap:round;stroke-linejoin:miter;stroke-miterlimit:4;stroke-dasharray:none;stroke-dashoffset:0;stroke-opacity:1;paint-order:stroke markers fill" />
          <rect
             transform="rotate(90)"
             style="opacity:1;fill:url(#linearGradient10115);fill-opacity:1;fill-rule:nonzero;stroke:none;stroke-width:1.37899935;stroke-linecap:round;stroke-linejoin:miter;stroke-miterlimit:4;stroke-dasharray:none;stroke-dashoffset:0;stroke-opacity:1;paint-order:stroke markers fill"
             id="rect10089"
             width="37.200394"
             height="17.930384"
             x="22.531172"
             y="56.779541" />
        </g>
        <g
           id="g10099">
          <rect
             transform="matrix(0,1,1,0,0,0)"
             style="opacity:1;fill:url(#linearGradient10117);fill-opacity:1;fill-rule:nonzero;stroke:none;stroke-width:1.37899935;stroke-linecap:round;stroke-linejoin:miter;stroke-miterlimit:4;stroke-dasharray:none;stroke-dashoffset:0;stroke-opacity:1;paint-order:stroke markers fill"
             id="rect10093"
             width="37.200394"
             height="17.930384"
             x="22.531172"
             y="-94.237549" />
          <rect
             style="opacity:1;fill:url(#linearGradient10119);fill-opacity:1;fill-rule:nonzero;stroke:none;stroke-width:2;stroke-linecap:round;stroke-linejoin:miter;stroke-miterlimit:4;stroke-dasharray:none;stroke-dashoffset:0;stroke-opacity:1;paint-order:stroke markers fill"
             id="rect10095"
             width="37.200394"
             height="37.715633"
             x="-93.979935"
             y="22.273558" />
          <rect
             y="56.779541"
             x="22.531172"
             height="17.930384"
             width="37.200394"
             id="rect10097"
             style="opacity:1;fill:url(#linearGradient10121);fill-opacity:1;fill-rule:nonzero;stroke:none;stroke-width:1.37899935;stroke-linecap:round;stroke-linejoin:miter;stroke-miterlimit:4;stroke-dasharray:none;stroke-dashoffset:0;stroke-opacity:1;paint-order:stroke markers fill"
             transform="rotate(90)" />
        </g>
        <g
           id="g10107">
          <rect
             y="-94.237549"
             x="22.531172"
             height="17.930384"
             width="37.200394"
             id="rect10101"
             style="opacity:1;fill:url(#linearGradient10123);fill-opacity:1;fill-rule:nonzero;stroke:none;stroke-width:1.37899935;stroke-linecap:round;stroke-linejoin:miter;stroke-miterlimit:4;stroke-dasharray:none;stroke-dashoffset:0;stroke-opacity:1;paint-order:stroke markers fill"
             transform="matrix(0,1,1,0,0,0)" />
          <rect
             y="22.273558"
             x="-93.979935"
             height="37.715633"
             width="37.200394"
             id="rect10103"
             style="opacity:1;fill:url(#linearGradient10125);fill-opacity:1;fill-rule:nonzero;stroke:none;stroke-width:2;stroke-linecap:round;stroke-linejoin:miter;stroke-miterlimit:4;stroke-dasharray:none;stroke-dashoffset:0;stroke-opacity:1;paint-order:stroke markers fill" />
          <rect
             transform="rotate(90)"
             style="opacity:1;fill:url(#linearGradient10127);fill-opacity:1;fill-rule:nonzero;stroke:none;stroke-width:1.37899935;stroke-linecap:round;stroke-linejoin:miter;stroke-miterlimit:4;stroke-dasharray:none;stroke-dashoffset:0;stroke-opacity:1;paint-order:stroke markers fill"
             id="rect10105"
             width="37.200394"
             height="17.930384"
             x="22.531172"
             y="56.779541" />
        </g>
      </g>
    </mask>
  </defs>
  <sodipodi:namedview
     id="base"
     pagecolor="#ffffff"
     bordercolor="#666666"
     borderopacity="1.0"
     inkscape:pageopacity="0.0"
     inkscape:pageshadow="2"
     inkscape:zoom="0.16047308"
     inkscape:cx="111.58961"
     inkscape:cy="268.91654"
     inkscape:document-units="mm"
     inkscape:current-layer="layer1"
     showgrid="false"
     inkscape:snap-global="false"
     inkscape:pagecheckerboard="true"
     inkscape:window-width="1920"
     inkscape:window-height="1017"
     inkscape:window-x="-8"
     inkscape:window-y="-8"
     inkscape:window-maximized="1" />
  <metadata
     id="metadata5">
    <rdf:RDF>
      <cc:Work
         rdf:about="">
        <dc:format>image/svg+xml</dc:format>
        <dc:type
           rdf:resource="http://purl.org/dc/dcmitype/StillImage" />
        <dc:title />
      </cc:Work>
    </rdf:RDF>
  </metadata>
  <g
     inkscape:label="Layer 1"
     inkscape:groupmode="layer"
     id="layer1"
     transform="translate(107.7603,-25.428177)">
    <g
       id="g880"
       transform="translate(-21.04968)"
       mask="url(#mask10083)">
      <g
         transform="translate(-98.223456)"
         id="g862">
        <path
           sodipodi:nodetypes="ssscs"
           inkscape:connector-curvature="0"
           id="path856"
           d="m 31.040942,46.632201 c 0,6.43885 -4.371515,12.456695 -9.764052,12.456695 -5.392537,0 -9.764053,-6.017844 -9.764053,-12.456695 0,-6.438851 2.914643,-12.095766 2.914643,-12.095766 -0.145732,7.650937 16.613462,5.656916 16.613462,12.095766 z"
           style="opacity:1;fill:#d1ac4a;fill-opacity:1;fill-rule:nonzero;stroke:none;stroke-width:2;stroke-linecap:round;stroke-linejoin:miter;stroke-miterlimit:4;stroke-dasharray:none;stroke-dashoffset:0;stroke-opacity:1;paint-order:stroke markers fill" />
        <path
           style="opacity:1;fill:#d1ac4a;fill-opacity:1;fill-rule:nonzero;stroke:none;stroke-width:2;stroke-linecap:round;stroke-linejoin:miter;stroke-miterlimit:4;stroke-dasharray:none;stroke-dashoffset:0;stroke-opacity:1;paint-order:stroke markers fill"
           d="m 31.040942,46.632201 c 0,6.43885 -4.371515,12.456695 -9.764052,12.456695 -5.392537,0 -9.764053,-6.017844 -9.764053,-12.456695 0,-6.438851 9.764053,-11.294239 7.723803,-21.204024 7.942401,5.392089 11.804302,14.765174 11.804302,21.204024 z"
           id="path858"
           inkscape:connector-curvature="0"
           sodipodi:nodetypes="ssscs" />
        <path
           style="opacity:1;fill:#d1ac4a;fill-opacity:1;fill-rule:nonzero;stroke:none;stroke-width:2;stroke-linecap:round;stroke-linejoin:miter;stroke-miterlimit:4;stroke-dasharray:none;stroke-dashoffset:0;stroke-opacity:1;paint-order:stroke markers fill"
           d="m 31.040942,46.632201 c 0,6.43885 -4.371515,12.456695 -9.764052,12.456695 -5.392537,0 -9.764053,-6.017844 -9.764053,-12.456695 0,-6.438851 16.514705,-8.682934 16.514705,-18.082657 2.623179,4.736295 3.0134,11.643807 3.0134,18.082657 z"
           id="path860"
           inkscape:connector-curvature="0"
           sodipodi:nodetypes="ssscs" />
      </g>
      <path
         sodipodi:nodetypes="ssscs"
         inkscape:connector-curvature="0"
         id="path871"
         d="m -71.985993,52.251914 c 0,4.809059 -2.220924,5.779363 -4.960571,5.779363 -2.739647,0 -4.960571,-0.970304 -4.960571,-5.779363 0,-4.809058 4.960571,-11.63578 4.960571,-11.63578 0,0 4.960571,6.826722 4.960571,11.63578 z"
         style="opacity:1;fill:#d1644a;fill-opacity:1;fill-rule:nonzero;stroke:none;stroke-width:4.53540134;stroke-linecap:round;stroke-linejoin:miter;stroke-miterlimit:4;stroke-dasharray:none;stroke-dashoffset:0;stroke-opacity:1;paint-order:stroke markers fill" />
      <path
         sodipodi:nodetypes="ssscs"
         inkscape:connector-curvature="0"
         id="path864"
         d="m -73.442926,53.651728 c 0,3.215525 -1.568632,3.864308 -3.503638,3.864308 -1.935006,0 -3.503638,-0.648783 -3.503638,-3.864308 0,-3.215524 3.503638,-7.780137 3.503638,-7.780137 0,0 3.503638,4.564613 3.503638,7.780137 z"
         style="opacity:1;fill:#4a63d1;fill-opacity:1;fill-rule:nonzero;stroke:none;stroke-width:3.1167748;stroke-linecap:round;stroke-linejoin:miter;stroke-miterlimit:4;stroke-dasharray:none;stroke-dashoffset:0;stroke-opacity:1;paint-order:stroke markers fill" />
      <path
         style="opacity:1;fill:#4a63d1;fill-opacity:1;fill-rule:nonzero;stroke:none;stroke-width:3.1167748;stroke-linecap:round;stroke-linejoin:miter;stroke-miterlimit:4;stroke-dasharray:none;stroke-dashoffset:0;stroke-opacity:1;paint-order:stroke markers fill"
         d="m -73.442926,53.651728 c 0,3.215525 -1.568632,3.864308 -3.503638,3.864308 -1.935006,0 -3.503638,-0.648783 -3.503638,-3.864308 0,-3.215524 3.503638,-7.780137 3.503638,-7.780137 0,0 3.503638,4.564613 3.503638,7.780137 z"
         id="path867"
         inkscape:connector-curvature="0"
         sodipodi:nodetypes="ssscs" />
    </g>
    <g
       id="g854"
       transform="translate(-48.134502,0.61828907)">
      <path
         sodipodi:nodetypes="ssscs"
         inkscape:connector-curvature="0"
         id="path839"
         d="m 31.040942,46.632201 c 0,6.43885 -4.371515,6.995142 -9.764052,6.995142 -5.392537,0 -9.764053,-0.556291 -9.764053,-6.995142 0,-6.438851 2.914643,-12.095766 2.914643,-12.095766 -0.145732,7.650937 16.613462,5.656916 16.613462,12.095766 z"
         style="opacity:1;fill:#4a63d1;fill-opacity:1;fill-rule:nonzero;stroke:none;stroke-width:2;stroke-linecap:round;stroke-linejoin:miter;stroke-miterlimit:4;stroke-dasharray:none;stroke-dashoffset:0;stroke-opacity:1;paint-order:stroke markers fill" />
      <path
         style="opacity:1;fill:#4a63d1;fill-opacity:1;fill-rule:nonzero;stroke:none;stroke-width:2;stroke-linecap:round;stroke-linejoin:miter;stroke-miterlimit:4;stroke-dasharray:none;stroke-dashoffset:0;stroke-opacity:1;paint-order:stroke markers fill"
         d="m 31.040942,46.632201 c 0,6.43885 -4.371515,6.995142 -9.764052,6.995142 -5.392537,0 -9.764053,-0.556291 -9.764053,-6.995142 0,-6.438851 9.764053,-11.294239 7.723803,-21.204024 7.942401,5.392089 11.804302,14.765174 11.804302,21.204024 z"
         id="path842"
         inkscape:connector-curvature="0"
         sodipodi:nodetypes="ssscs" />
      <path
         style="opacity:1;fill:#4a63d1;fill-opacity:1;fill-rule:nonzero;stroke:none;stroke-width:2;stroke-linecap:round;stroke-linejoin:miter;stroke-miterlimit:4;stroke-dasharray:none;stroke-dashoffset:0;stroke-opacity:1;paint-order:stroke markers fill"
         d="m 31.040942,46.632201 c 0,6.43885 -4.371515,6.995142 -9.764052,6.995142 -5.392537,0 -9.764053,-0.556291 -9.764053,-6.995142 0,-6.438851 16.514705,-8.682934 16.514705,-18.082657 2.623179,4.736295 3.0134,11.643807 3.0134,18.082657 z"
         id="path844"
         inkscape:connector-curvature="0"
         sodipodi:nodetypes="ssscs" />
    </g>
    <g
       mask="url(#mask947)"
       transform="translate(11.822688,-8.8621433)"
       id="g977">
      <g
         id="g969"
         transform="translate(-98.223456)">
        <path
           style="opacity:1;fill:#d1ac4a;fill-opacity:1;fill-rule:nonzero;stroke:none;stroke-width:2;stroke-linecap:round;stroke-linejoin:miter;stroke-miterlimit:4;stroke-dasharray:none;stroke-dashoffset:0;stroke-opacity:1;paint-order:stroke markers fill"
           d="m 31.040942,46.632201 c 0,6.43885 -4.371515,12.456695 -9.764052,12.456695 -5.392537,0 -9.764053,-6.017844 -9.764053,-12.456695 0,-6.438851 2.914643,-12.095766 2.914643,-12.095766 -0.145732,7.650937 16.613462,5.656916 16.613462,12.095766 z"
           id="path963"
           inkscape:connector-curvature="0"
           sodipodi:nodetypes="ssscs" />
        <path
           sodipodi:nodetypes="ssscs"
           inkscape:connector-curvature="0"
           id="path965"
           d="m 31.040942,46.632201 c 0,6.43885 -4.371515,12.456695 -9.764052,12.456695 -5.392537,0 -9.764053,-6.017844 -9.764053,-12.456695 0,-6.438851 9.764053,-11.294239 7.723803,-21.204024 7.942401,5.392089 11.804302,14.765174 11.804302,21.204024 z"
           style="opacity:1;fill:#d1ac4a;fill-opacity:1;fill-rule:nonzero;stroke:none;stroke-width:2;stroke-linecap:round;stroke-linejoin:miter;stroke-miterlimit:4;stroke-dasharray:none;stroke-dashoffset:0;stroke-opacity:1;paint-order:stroke markers fill" />
        <path
           sodipodi:nodetypes="ssscs"
           inkscape:connector-curvature="0"
           id="path967"
           d="m 31.040942,46.632201 c 0,6.43885 -4.371515,12.456695 -9.764052,12.456695 -5.392537,0 -9.764053,-6.017844 -9.764053,-12.456695 0,-6.438851 16.514705,-8.682934 16.514705,-18.082657 2.623179,4.736295 3.0134,11.643807 3.0134,18.082657 z"
           style="opacity:1;fill:#d1ac4a;fill-opacity:1;fill-rule:nonzero;stroke:none;stroke-width:2;stroke-linecap:round;stroke-linejoin:miter;stroke-miterlimit:4;stroke-dasharray:none;stroke-dashoffset:0;stroke-opacity:1;paint-order:stroke markers fill" />
      </g>
      <path
         style="opacity:1;fill:#d1644a;fill-opacity:1;fill-rule:nonzero;stroke:none;stroke-width:4.53540134;stroke-linecap:round;stroke-linejoin:miter;stroke-miterlimit:4;stroke-dasharray:none;stroke-dashoffset:0;stroke-opacity:1;paint-order:stroke markers fill"
         d="m -71.985993,52.251914 c 0,4.809059 -2.220924,5.779363 -4.960571,5.779363 -2.739647,0 -4.960571,-0.970304 -4.960571,-5.779363 0,-4.809058 4.960571,-11.63578 4.960571,-11.63578 0,0 4.960571,6.826722 4.960571,11.63578 z"
         id="path971"
         inkscape:connector-curvature="0"
         sodipodi:nodetypes="ssscs" />
      <path
         style="opacity:1;fill:#4a63d1;fill-opacity:1;fill-rule:nonzero;stroke:none;stroke-width:3.1167748;stroke-linecap:round;stroke-linejoin:miter;stroke-miterlimit:4;stroke-dasharray:none;stroke-dashoffset:0;stroke-opacity:1;paint-order:stroke markers fill"
         d="m -73.442926,53.651728 c 0,3.215525 -1.568632,3.864308 -3.503638,3.864308 -1.935006,0 -3.503638,-0.648783 -3.503638,-3.864308 0,-3.215524 3.503638,-7.780137 3.503638,-7.780137 0,0 3.503638,4.564613 3.503638,7.780137 z"
         id="path973"
         inkscape:connector-curvature="0"
         sodipodi:nodetypes="ssscs" />
      <path
         sodipodi:nodetypes="ssscs"
         inkscape:connector-curvature="0"
         id="path975"
         d="m -73.442926,53.651728 c 0,3.215525 -1.568632,3.864308 -3.503638,3.864308 -1.935006,0 -3.503638,-0.648783 -3.503638,-3.864308 0,-3.215524 3.503638,-7.780137 3.503638,-7.780137 0,0 3.503638,4.564613 3.503638,7.780137 z"
         style="opacity:1;fill:#4a63d1;fill-opacity:1;fill-rule:nonzero;stroke:none;stroke-width:3.1167748;stroke-linecap:round;stroke-linejoin:miter;stroke-miterlimit:4;stroke-dasharray:none;stroke-dashoffset:0;stroke-opacity:1;paint-order:stroke markers fill" />
    </g>
    <g
       id="g993"
       transform="translate(20.375687,1.9579154)"
       mask="url(#mask947)">
      <g
         transform="translate(-98.223456)"
         id="g985">
        <path
           sodipodi:nodetypes="ssscs"
           inkscape:connector-curvature="0"
           id="path979"
           d="m 31.040942,46.632201 c 0,6.43885 -4.371515,12.456695 -9.764052,12.456695 -5.392537,0 -9.764053,-6.017844 -9.764053,-12.456695 0,-6.438851 2.914643,-12.095766 2.914643,-12.095766 -0.145732,7.650937 16.613462,5.656916 16.613462,12.095766 z"
           style="opacity:1;fill:#d1ac4a;fill-opacity:1;fill-rule:nonzero;stroke:none;stroke-width:2;stroke-linecap:round;stroke-linejoin:miter;stroke-miterlimit:4;stroke-dasharray:none;stroke-dashoffset:0;stroke-opacity:1;paint-order:stroke markers fill" />
        <path
           style="opacity:1;fill:#d1ac4a;fill-opacity:1;fill-rule:nonzero;stroke:none;stroke-width:2;stroke-linecap:round;stroke-linejoin:miter;stroke-miterlimit:4;stroke-dasharray:none;stroke-dashoffset:0;stroke-opacity:1;paint-order:stroke markers fill"
           d="m 31.040942,46.632201 c 0,6.43885 -4.371515,12.456695 -9.764052,12.456695 -5.392537,0 -9.764053,-6.017844 -9.764053,-12.456695 0,-6.438851 9.764053,-11.294239 7.723803,-21.204024 7.942401,5.392089 11.804302,14.765174 11.804302,21.204024 z"
           id="path981"
           inkscape:connector-curvature="0"
           sodipodi:nodetypes="ssscs" />
        <path
           style="opacity:1;fill:#d1ac4a;fill-opacity:1;fill-rule:nonzero;stroke:none;stroke-width:2;stroke-linecap:round;stroke-linejoin:miter;stroke-miterlimit:4;stroke-dasharray:none;stroke-dashoffset:0;stroke-opacity:1;paint-order:stroke markers fill"
           d="m 31.040942,46.632201 c 0,6.43885 -4.371515,12.456695 -9.764052,12.456695 -5.392537,0 -9.764053,-6.017844 -9.764053,-12.456695 0,-6.438851 16.514705,-8.682934 16.514705,-18.082657 2.623179,4.736295 3.0134,11.643807 3.0134,18.082657 z"
           id="path983"
           inkscape:connector-curvature="0"
           sodipodi:nodetypes="ssscs" />
      </g>
      <path
         sodipodi:nodetypes="ssscs"
         inkscape:connector-curvature="0"
         id="path987"
         d="m -71.985993,52.251914 c 0,4.809059 -2.220924,5.779363 -4.960571,5.779363 -2.739647,0 -4.960571,-0.970304 -4.960571,-5.779363 0,-4.809058 4.960571,-11.63578 4.960571,-11.63578 0,0 4.960571,6.826722 4.960571,11.63578 z"
         style="opacity:1;fill:#d1644a;fill-opacity:1;fill-rule:nonzero;stroke:none;stroke-width:4.53540134;stroke-linecap:round;stroke-linejoin:miter;stroke-miterlimit:4;stroke-dasharray:none;stroke-dashoffset:0;stroke-opacity:1;paint-order:stroke markers fill" />
      <path
         sodipodi:nodetypes="ssscs"
         inkscape:connector-curvature="0"
         id="path989"
         d="m -73.442926,53.651728 c 0,3.215525 -1.568632,3.864308 -3.503638,3.864308 -1.935006,0 -3.503638,-0.648783 -3.503638,-3.864308 0,-3.215524 3.503638,-7.780137 3.503638,-7.780137 0,0 3.503638,4.564613 3.503638,7.780137 z"
         style="opacity:1;fill:#4a63d1;fill-opacity:1;fill-rule:nonzero;stroke:none;stroke-width:3.1167748;stroke-linecap:round;stroke-linejoin:miter;stroke-miterlimit:4;stroke-dasharray:none;stroke-dashoffset:0;stroke-opacity:1;paint-order:stroke markers fill" />
      <path
         style="opacity:1;fill:#4a63d1;fill-opacity:1;fill-rule:nonzero;stroke:none;stroke-width:3.1167748;stroke-linecap:round;stroke-linejoin:miter;stroke-miterlimit:4;stroke-dasharray:none;stroke-dashoffset:0;stroke-opacity:1;paint-order:stroke markers fill"
         d="m -73.442926,53.651728 c 0,3.215525 -1.568632,3.864308 -3.503638,3.864308 -1.935006,0 -3.503638,-0.648783 -3.503638,-3.864308 0,-3.215524 3.503638,-7.780137 3.503638,-7.780137 0,0 3.503638,4.564613 3.503638,7.780137 z"
         id="path991"
         inkscape:connector-curvature="0"
         sodipodi:nodetypes="ssscs" />
    </g>
  </g>
</svg>
