<?xml version="1.0" encoding="UTF-8" standalone="no"?>
<!-- Created with Inkscape (http://www.inkscape.org/) -->

<svg
   xmlns:dc="http://purl.org/dc/elements/1.1/"
   xmlns:cc="http://creativecommons.org/ns#"
   xmlns:rdf="http://www.w3.org/1999/02/22-rdf-syntax-ns#"
   xmlns:svg="http://www.w3.org/2000/svg"
   xmlns="http://www.w3.org/2000/svg"
   xmlns:xlink="http://www.w3.org/1999/xlink"
   xmlns:sodipodi="http://sodipodi.sourceforge.net/DTD/sodipodi-0.dtd"
   xmlns:inkscape="http://www.inkscape.org/namespaces/inkscape"
   width="52.690678mm"
   height="43.056316mm"
   viewBox="0 0 52.690677 43.056317"
   version="1.1"
   id="svg8"
   inkscape:version="0.92.5 (2060ec1f9f, 2020-04-08)"
   sodipodi:docname="first house.svg"
   inkscape:export-filename="../Assets/Sprites/FirstHouse/clock.png"
   inkscape:export-xdpi="200"
   inkscape:export-ydpi="200">
  <defs
     id="defs2">
    <pattern
       inkscape:collect="always"
       xlink:href="#pattern1637"
       id="pattern1577"
       patternTransform="matrix(0.26458333,0,0,0.26458333,-540.81527,342.62034)" />
    <pattern
       patternUnits="userSpaceOnUse"
       width="120"
       height="120"
       patternTransform="matrix(0.26458333,0,0,0.26458333,580.19342,84.099998)"
       id="pattern1637">
      <g
         id="g1635"
         transform="matrix(3.7795276,0,0,3.7795276,-2192.857,-317.85826)">
        <rect
           style="opacity:1;fill:#547c9a;fill-opacity:1;stroke:none;stroke-width:2;stroke-miterlimit:4;stroke-dasharray:none;stroke-opacity:1;paint-order:stroke markers fill"
           id="rect1619"
           width="31.75"
           height="31.75"
           x="580.19342"
           y="84.099998" />
        <g
           id="g1629"
           transform="translate(0.5669539)">
          <rect
             style="opacity:1;fill:#68b6bf;fill-opacity:1;stroke:none;stroke-width:2;stroke-miterlimit:4;stroke-dasharray:none;stroke-opacity:1;paint-order:stroke markers fill"
             id="rect1621"
             width="5.4806552"
             height="31.75"
             x="585.48511"
             y="84.099998" />
          <rect
             y="84.099998"
             x="600.03717"
             height="31.75"
             width="5.4806552"
             id="rect1625"
             style="opacity:1;fill:#68b6bf;fill-opacity:1;stroke:none;stroke-width:2;stroke-miterlimit:4;stroke-dasharray:none;stroke-opacity:1;paint-order:stroke markers fill" />
        </g>
      </g>
    </pattern>
    <pattern
       patternUnits="userSpaceOnUse"
       width="120"
       height="120"
       patternTransform="matrix(0.26458333,0,0,0.26458333,1071.5625,128.95178)"
       id="pattern2287">
      <g
         style="stroke-width:53.98990631"
         id="g2285"
         transform="matrix(3.7795276,0,0,3.7795276,-2192.857,-317.85826)">
        <rect
           style="opacity:1;fill:#a7a75d;fill-opacity:1;stroke:none;stroke-width:107.97981262;stroke-miterlimit:4;stroke-dasharray:none;stroke-opacity:1;paint-order:stroke markers fill"
           id="rect2277"
           width="31.75"
           height="31.75"
           x="580.19342"
           y="84.099998" />
        <g
           style="fill:#baba73;fill-opacity:1;stroke-width:53.98990631"
           id="g2283"
           transform="translate(0.5669539)">
          <rect
             style="opacity:1;fill:#baba73;fill-opacity:1;stroke:none;stroke-width:107.97981262;stroke-miterlimit:4;stroke-dasharray:none;stroke-opacity:1;paint-order:stroke markers fill"
             id="rect2279"
             width="5.4806552"
             height="31.75"
             x="585.48511"
             y="84.099998" />
          <rect
             y="84.099998"
             x="600.03717"
             height="31.75"
             width="5.4806552"
             id="rect2281"
             style="opacity:1;fill:#baba73;fill-opacity:1;stroke:none;stroke-width:107.97981262;stroke-miterlimit:4;stroke-dasharray:none;stroke-opacity:1;paint-order:stroke markers fill" />
        </g>
      </g>
    </pattern>
    <linearGradient
       gradientTransform="matrix(0.06693017,0,0,0.11935388,-1024.7656,273.57476)"
       inkscape:collect="always"
       xlink:href="#linearGradient1719"
       id="linearGradient2595-4"
       x1="618.95184"
       y1="38.802818"
       x2="618.95184"
       y2="-174.37575"
       gradientUnits="userSpaceOnUse" />
    <linearGradient
       id="linearGradient1719"
       inkscape:collect="always">
      <stop
         id="stop1715"
         offset="0"
         style="stop-color:#2a465a;stop-opacity:1" />
      <stop
         id="stop1717"
         offset="1"
         style="stop-color:#151b29;stop-opacity:1" />
    </linearGradient>
    <radialGradient
       inkscape:collect="always"
       xlink:href="#linearGradient3845"
       id="radialGradient3847"
       cx="1436.8057"
       cy="-83.164978"
       fx="1436.8057"
       fy="-83.164978"
       r="20.95393"
       gradientUnits="userSpaceOnUse"
       gradientTransform="matrix(0.86363636,0,0,0.86363636,195.92805,-11.283277)" />
    <linearGradient
       inkscape:collect="always"
       id="linearGradient3845">
      <stop
         style="stop-color:#ececec;stop-opacity:1"
         offset="0"
         id="stop3841" />
      <stop
         id="stop3849"
         offset="0.71428543"
         style="stop-color:#ececec;stop-opacity:1" />
      <stop
         style="stop-color:#bfbfbf;stop-opacity:1"
         offset="1"
         id="stop3843" />
    </linearGradient>
  </defs>
  <sodipodi:namedview
     id="base"
     pagecolor="#ffffff"
     bordercolor="#666666"
     borderopacity="1.0"
     inkscape:pageopacity="0.0"
     inkscape:pageshadow="2"
     inkscape:zoom="0.49497475"
     inkscape:cx="-21.299535"
     inkscape:cy="17.091781"
     inkscape:document-units="mm"
     inkscape:current-layer="layer1"
     showgrid="false"
     inkscape:window-width="1920"
     inkscape:window-height="1017"
     inkscape:window-x="-8"
     inkscape:window-y="-8"
     inkscape:window-maximized="1" />
  <metadata
     id="metadata5">
    <rdf:RDF>
      <cc:Work
         rdf:about="">
        <dc:format>image/svg+xml</dc:format>
        <dc:type
           rdf:resource="http://purl.org/dc/dcmitype/StillImage" />
        <dc:title></dc:title>
      </cc:Work>
    </rdf:RDF>
  </metadata>
  <g
     inkscape:label="Layer 1"
     inkscape:groupmode="layer"
     id="layer1"
     transform="translate(-162.88213,-71.1632)">
    <g
       transform="translate(-1449.132,27.383927)"
       style="display:inline"
       id="g3705">
      <rect
         style="opacity:1;fill:#5b4730;fill-opacity:1;stroke:none;stroke-width:2.52288985;stroke-linecap:square;stroke-linejoin:miter;stroke-miterlimit:4;stroke-dasharray:none;stroke-opacity:1;paint-order:stroke markers fill"
         id="rect3700"
         width="52.371338"
         height="104.90921"
         x="1240.0059"
         y="-64.052818" />
      <rect
         y="-62.17944"
         x="1242.0249"
         height="101.16245"
         width="48.333168"
         id="rect3696"
         style="opacity:1;fill:#6f573b;fill-opacity:1;stroke:none;stroke-width:2.37999988;stroke-linecap:square;stroke-linejoin:miter;stroke-miterlimit:4;stroke-dasharray:none;stroke-opacity:1;paint-order:stroke markers fill" />
      <circle
         r="3.7467573"
         cy="-5.9780903"
         cx="1281.7404"
         id="path3698"
         style="opacity:1;fill:#ffeeaa;fill-opacity:1;stroke:none;stroke-width:2.37999988;stroke-linecap:square;stroke-linejoin:miter;stroke-miterlimit:4;stroke-dasharray:none;stroke-opacity:1;paint-order:stroke markers fill" />
    </g>
    <g
       transform="translate(-1642.6158,258.52034)"
       style="display:inline"
       id="g2688">
      <rect
         style="opacity:1;fill:#a7a75d;fill-opacity:1;stroke:none;stroke-width:1;stroke-linecap:round;stroke-miterlimit:4;stroke-dasharray:none;stroke-opacity:1;paint-order:stroke markers fill"
         id="rect2676"
         width="260.69321"
         height="170.06726"
         x="1308.2363"
         y="-122.697" />
      <path
         style="opacity:1;fill:url(#pattern2287);fill-opacity:1;stroke:none;stroke-width:2;stroke-miterlimit:4;stroke-dasharray:none;stroke-opacity:1;paint-order:stroke markers fill"
         d="M 1578.177,-123.46842 H 1308.2363 V 47.37027 h 269.9407 z"
         id="path2694"
         inkscape:connector-curvature="0"
         sodipodi:nodetypes="ccccc" />
    </g>
    <path
       style="display:inline;opacity:1;fill:url(#pattern1577);fill-opacity:1;stroke:none;stroke-width:2;stroke-miterlimit:4;stroke-dasharray:none;stroke-opacity:1;paint-order:stroke markers fill"
       d="m -546.37917,171.7213 h 213.8896 v 134.16931 h -213.8896 z"
       id="rect1310"
       inkscape:connector-curvature="0"
       sodipodi:nodetypes="ccccc" />
    <path
       sodipodi:nodetypes="ccccc"
       inkscape:connector-curvature="0"
       id="path1472"
       d="m -73.686277,136.57169 h 13.89801 v 54.4055 h -13.89801 z"
       style="display:inline;opacity:1;fill:#666666;fill-opacity:1;stroke:none;stroke-width:1;stroke-miterlimit:4;stroke-dasharray:none;stroke-opacity:1;paint-order:stroke markers fill" />
    <path
       style="display:inline;opacity:1;fill:#666666;fill-opacity:1;stroke:none;stroke-width:1;stroke-miterlimit:4;stroke-dasharray:none;stroke-opacity:1;paint-order:stroke markers fill"
       d="M -554.04499,164.51688 V 176.265 h 215.83591 v -11.74812 z"
       id="path1481"
       inkscape:connector-curvature="0"
       sodipodi:nodetypes="ccccc" />
    <path
       style="display:inline;opacity:1;fill:#666666;fill-opacity:1;stroke:none;stroke-width:1;stroke-miterlimit:4;stroke-dasharray:none;stroke-opacity:1;paint-order:stroke markers fill"
       d="m -554.04507,173.24107 h 13.898 v 17.73612 h -13.898 z"
       id="path1483"
       inkscape:connector-curvature="0"
       sodipodi:nodetypes="ccccc" />
    <path
       style="display:inline;opacity:1;fill:#666666;fill-opacity:1;stroke:none;stroke-width:0.99999994;stroke-miterlimit:4;stroke-dasharray:none;stroke-opacity:1;paint-order:stroke markers fill"
       d="m -338.20907,136.57169 h 13.898 v 2.98162 58.05217 h -13.898 v -57.67799 z"
       id="path1937"
       inkscape:connector-curvature="0"
       sodipodi:nodetypes="ccccccc" />
    <path
       style="display:inline;opacity:1;fill:#666666;fill-opacity:1;stroke:none;stroke-width:0.5;stroke-linecap:round;stroke-miterlimit:4;stroke-dasharray:none;stroke-opacity:1;paint-order:stroke markers fill"
       d="m -338.20908,127.8475 v 11.74812 h 13.89785 264.522883 V 127.8475 H -324.31123 Z"
       id="rect5390"
       inkscape:connector-curvature="0"
       sodipodi:nodetypes="ccccccc" />
    <g
       style="display:inline"
       transform="translate(-574.14574,315.07421)"
       id="g1424">
      <path
         sodipodi:type="inkscape:offset"
         inkscape:radius="-0.74835342"
         inkscape:original="M 656.76172 -120.35547 L 656.76172 -110.97656 C 654.33099 -109.87617 652.76751 -107.45726 652.76367 -104.78906 C 652.76359 -101.03143 655.81072 -97.984285 659.56836 -97.984375 C 663.32597 -97.984301 666.37313 -101.03144 666.37305 -104.78906 C 666.37005 -107.45788 664.8062 -109.87766 662.375 -110.97852 L 662.375 -120.35547 L 656.76172 -120.35547 z "
         style="opacity:1;fill:#fff6ce;fill-opacity:0.44444448;stroke:none;stroke-width:1;stroke-miterlimit:4;stroke-dasharray:none;stroke-opacity:1;paint-order:stroke markers fill"
         id="path1414"
         d="m 657.50977,-119.60742 v 8.63086 a 0.74842826,0.74842826 0 0 1 -0.43946,0.68164 c -2.1652,0.98018 -3.55517,3.1313 -3.55859,5.50781 10e-4,3.35213 2.70425,6.054768 6.05664,6.054688 3.35303,6.6e-5 6.05671,-2.703608 6.05664,-6.056638 -0.003,-2.37699 -1.39292,-4.52719 -3.55859,-5.50782 a 0.74842826,0.74842826 0 0 1 -0.43946,-0.68164 v -8.6289 z" />
      <path
         style="opacity:1;fill:#666666;fill-opacity:1;stroke:none;stroke-width:1;stroke-miterlimit:4;stroke-dasharray:none;stroke-opacity:1;paint-order:stroke markers fill"
         d="m 656.76234,-120.35648 v 6.68538 h 5.61258 v -6.68538 z"
         id="path1416"
         inkscape:connector-curvature="0" />
      <path
         style="opacity:1;fill:#666666;fill-opacity:1;stroke:none;stroke-width:1;stroke-miterlimit:4;stroke-dasharray:none;stroke-opacity:1;paint-order:stroke markers fill"
         id="path1418"
         d="m 658.66744,-114.9951 c 0.0204,0.0867 0.042,0.17306 0.0641,0.25932 0.0386,0.15748 0.0765,0.31512 0.11395,0.47285 0.0569,0.23109 0.10351,0.46439 0.14825,0.69806 0.0566,0.30461 0.10396,0.61083 0.14589,0.91778 0.0515,0.37091 0.0803,0.74418 0.1038,1.11772 0.0243,0.41462 0.0233,0.83005 0.0103,1.245 -0.0138,0.41903 -0.0621,0.83572 -0.13121,1.24891 -0.0634,0.38636 -0.17082,0.76238 -0.30131,1.13083 -0.1179,0.32908 -0.279,0.63885 -0.46813,0.93199 -0.16539,0.2486 -0.36665,0.46861 -0.58848,0.66732 -0.25927,0.21916 -0.55314,0.3971 -0.87284,0.51227 -0.18803,0.0671 -0.38502,0.0939 -0.58359,0.0997 -0.16592,-0.003 -0.32625,-0.0409 -0.48072,-0.099 -0.12869,-0.0511 -0.24214,-0.12746 -0.33964,-0.22498 -0.0752,-0.0794 -0.12756,-0.17282 -0.15934,-0.27683 -0.0254,-0.0975 -0.0108,-0.19155 0.0322,-0.28105 0.0952,-0.15486 0.27771,-0.2358 0.45408,-0.22667 0.0765,-5e-5 0.14946,0.0196 0.21759,0.0534 0.23979,0.17747 -0.0391,0.55426 -0.2789,0.37678 v 0 c -0.0347,-5.2e-4 -0.0692,0.001 -0.10318,0.009 -0.15193,0.0959 0.32435,-0.0977 0.16793,-0.10946 -0.0209,-0.009 -0.0448,-0.0188 -0.0501,0.0129 0.006,0.0561 0.0455,0.10141 0.0821,0.14135 0.0719,0.0649 0.1574,0.11039 0.24939,0.14035 0.12473,0.0366 0.25342,0.0575 0.38378,0.0453 0.17124,-0.0185 0.33901,-0.0562 0.49721,-0.12622 0.0619,-0.0282 0.23809,-0.1299 0.18298,-0.0901 -0.0461,0.0333 -0.0991,0.0563 -0.14634,0.0881 -0.0312,0.021 0.066,-0.0362 0.0982,-0.0557 0.097,-0.0585 0.1053,-0.0679 0.19759,-0.13584 0.21635,-0.16963 0.40767,-0.36647 0.56891,-0.58977 0.18774,-0.26868 0.34602,-0.55557 0.46183,-0.86303 0.13099,-0.3511 0.23984,-0.7099 0.30302,-1.08004 0.0716,-0.39983 0.12057,-0.80364 0.13663,-1.20978 0.0148,-0.40603 0.0175,-0.81256 -0.004,-1.21847 -0.022,-0.36695 -0.0476,-0.73375 -0.0968,-1.09825 -0.0398,-0.30215 -0.0855,-0.6035 -0.13946,-0.90347 -0.0435,-0.23 -0.087,-0.46001 -0.14245,-0.68751 -0.0359,-0.1561 -0.0741,-0.31165 -0.10999,-0.46776 -0.0222,-0.0869 -0.0448,-0.17392 -0.0625,-0.26183 -0.10406,-0.27947 0.33509,-0.44298 0.43913,-0.16351 z"
         inkscape:connector-curvature="0" />
      <path
         style="opacity:1;fill:#666666;fill-opacity:1;stroke:none;stroke-width:1;stroke-miterlimit:4;stroke-dasharray:none;stroke-opacity:1;paint-order:stroke markers fill"
         id="path1420"
         d="m 662.92877,-107.1558 c 0.0151,0.0347 0.0249,0.0714 0.0339,0.10808 0.0108,0.0467 0.018,0.0942 0.0246,0.14171 0.008,0.0544 0.0116,0.10913 0.013,0.16405 0,0.0631 -0.004,0.12606 -0.0111,0.1887 -0.008,0.0685 -0.0241,0.1355 -0.042,0.2019 -0.0193,0.0718 -0.0458,0.14117 -0.0736,0.21003 -0.0294,0.0734 -0.0664,0.14331 -0.10549,0.2119 -0.0419,0.0721 -0.0882,0.14144 -0.13777,0.20848 -0.0515,0.0671 -0.10903,0.1292 -0.16795,0.18978 -0.0598,0.061 -0.12518,0.11631 -0.19273,0.16853 -0.0673,0.0528 -0.13888,0.0993 -0.21148,0.14429 -0.10917,0.0708 -0.22579,0.12735 -0.34491,0.17871 -0.0732,0.0312 -0.14872,0.0563 -0.22487,0.0792 -0.0718,0.0213 -0.14473,0.0379 -0.21799,0.0531 -0.0723,0.0129 -0.14549,0.0168 -0.21873,0.0201 -0.0688,5.3e-4 -0.13742,-0.002 -0.20563,-0.011 -0.0632,-0.007 -0.12539,-0.0233 -0.18402,-0.048 -0.0531,-0.0232 -0.0953,-0.0612 -0.13163,-0.1054 -0.0297,-0.0379 -0.0472,-0.0816 -0.0572,-0.12827 -0.007,-0.0457 0.003,-0.0902 0.0167,-0.13322 0.0401,-0.0948 0.11623,-0.11687 0.20812,-0.16692 0.0435,-0.0134 0.0885,-0.0124 0.13335,-0.0105 0.0485,0.005 0.0943,0.0195 0.13729,0.0422 0.0433,0.0229 0.078,0.0563 0.10824,0.0942 0.0314,0.0433 0.0452,0.0935 0.0501,0.14599 0.003,0.054 -0.0132,0.10482 -0.0347,0.15357 -0.0233,0.0501 -0.0569,0.0941 -0.0931,0.13547 -0.0399,0.0439 -0.0832,0.0847 -0.12877,0.12263 -0.0471,0.0389 -0.0971,0.0744 -0.14761,0.10876 -0.0913,0.0599 -0.18545,0.11129 -0.28996,0.14209 -0.0572,0.0179 -0.11591,0.0261 -0.17568,0.0252 -0.0584,-0.004 -0.11591,-0.0162 -0.17174,-0.0334 -0.0517,-0.0186 -0.0998,-0.0446 -0.14391,-0.0771 -0.0445,-0.0341 -0.0784,-0.0777 -0.10639,-0.12577 -0.0279,-0.0485 -0.0433,-0.10184 -0.0534,-0.15648 -0.01,-0.0555 -0.007,-0.11152 0,-0.16719 0.007,-0.058 0.0284,-0.11169 0.0525,-0.16425 0.0238,-0.0521 0.0577,-0.0973 0.10022,-0.13527 0.0913,-0.0639 0.15798,-0.11005 0.2644,-0.099 0.0521,0.007 0.0944,0.0328 0.13216,0.068 0.0357,0.0358 0.0557,0.0813 0.0685,0.12935 0.0101,0.0457 0.0109,0.0925 0.007,0.139 -0.003,0.0531 -0.0196,0.10372 -0.0403,0.15231 -0.0206,0.0495 -0.0487,0.0955 -0.0797,0.13909 -0.0335,0.0449 -0.0746,0.0824 -0.11814,0.11709 -0.0902,0.0637 -0.17526,0.10158 -0.27953,0.12276 -0.0556,0.0118 -0.11272,0.0133 -0.16926,0.009 -0.0568,-0.002 -0.11192,-0.0175 -0.16663,-0.0318 -0.0583,-0.0165 -0.11345,-0.0423 -0.16693,-0.0705 -0.0541,-0.0246 -0.10115,-0.0604 -0.14835,-0.0957 -0.0482,-0.0365 -0.0888,-0.081 -0.12335,-0.13033 -0.033,-0.0487 -0.0523,-0.10396 -0.066,-0.16065 -0.013,-0.053 -0.0122,-0.10645 -0.003,-0.1597 0.0111,-0.0517 0.0381,-0.0951 0.0729,-0.13395 0.11668,-0.0777 0.15277,-0.10755 0.27273,-0.0749 0.0496,0.0158 0.09,0.0467 0.12407,0.0852 0.0336,0.0403 0.0515,0.0881 0.0621,0.13878 0.008,0.0494 0.006,0.0993 -0.003,0.14843 -0.008,0.0527 -0.0292,0.10126 -0.055,0.14748 -0.0277,0.0473 -0.0654,0.0862 -0.10525,0.12308 -0.0784,0.0703 -0.17261,0.12097 -0.2704,0.15913 -0.0571,0.0233 -0.11787,0.0341 -0.17817,0.0453 -0.0632,0.008 -0.12669,0.0116 -0.19037,0.008 -0.067,-0.002 -0.13274,-0.0164 -0.19712,-0.0339 -0.0616,-0.015 -0.12054,-0.0377 -0.17719,-0.066 -0.0566,-0.0289 -0.10408,-0.0697 -0.14568,-0.11718 -0.0373,-0.0433 -0.0623,-0.094 -0.0806,-0.14775 -0.0175,-0.0514 -0.0199,-0.10435 -0.013,-0.15774 0.009,-0.0483 0.0277,-0.0935 0.0527,-0.13547 0.051,-0.0812 0.13973,-0.14079 0.23657,-0.1443 0.0519,7.9e-4 0.0971,0.0207 0.13874,0.05 0.0391,0.0297 0.0661,0.0694 0.0873,0.11296 0.0209,0.0459 0.0297,0.0956 0.0337,0.14549 0.003,0.0529 -0.006,0.10505 -0.0183,0.15626 -0.0148,0.0571 -0.0412,0.1097 -0.0717,0.15979 -0.0348,0.0563 -0.0815,0.10352 -0.13047,0.14753 -0.0898,0.0754 -0.19116,0.13707 -0.298,0.18532 -0.0674,0.0296 -0.13724,0.0534 -0.20889,0.07 -0.0702,0.0166 -0.14211,0.0257 -0.21415,0.0294 -0.0689,0.004 -0.13804,-0.003 -0.20564,-0.0163 -0.0642,-0.0141 -0.12411,-0.0414 -0.18208,-0.0716 -0.0553,-0.0289 -0.1,-0.0707 -0.13952,-0.11825 -0.0357,-0.0443 -0.0609,-0.0947 -0.0783,-0.14854 -0.0164,-0.0542 -0.0172,-0.11071 -0.014,-0.16678 0.003,-0.0586 0.0193,-0.11455 0.0412,-0.16854 0.0236,-0.0555 0.0576,-0.10506 0.0963,-0.15099 0.038,-0.0422 0.0796,-0.0804 0.12424,-0.11544 0.0945,-0.0648 0.1782,-0.10798 0.28914,-0.11651 0.0618,-0.003 0.12139,0.0103 0.1778,0.0347 0.0519,0.0236 0.0892,0.063 0.11904,0.11053 0.0274,0.0481 0.0313,0.10058 0.0249,0.15428 -0.009,0.0517 -0.0335,0.0976 -0.0616,0.14107 -0.0335,0.0482 -0.0781,0.0863 -0.12374,0.12248 -0.0889,0.0674 -0.18762,0.12035 -0.28816,0.16817 -0.0632,0.0296 -0.12917,0.0527 -0.19566,0.0737 -0.0657,0.022 -0.13441,0.0324 -0.2027,0.0432 -0.0668,0.008 -0.13398,0.009 -0.20121,0.009 -0.0649,-0.002 -0.12856,-0.0136 -0.19042,-0.0329 -0.0579,-0.0189 -0.111,-0.0464 -0.16042,-0.0816 -0.041,-0.0317 -0.0792,-0.0669 -0.11853,-0.10058 -0.0387,-0.0345 -0.0767,-0.0697 -0.11266,-0.10708 -0.0392,-0.0386 -0.0759,-0.0797 -0.11205,-0.12122 -0.038,-0.0446 -0.0725,-0.092 -0.10729,-0.13911 -0.0353,-0.0478 -0.0678,-0.0975 -0.10007,-0.14739 -0.034,-0.0502 -0.0644,-0.10261 -0.0956,-0.15456 -0.0305,-0.052 -0.0589,-0.10517 -0.0863,-0.15882 -0.0275,-0.051 -0.0538,-0.10261 -0.0785,-0.15501 -0.0266,-0.0553 -0.0519,-0.11124 -0.0771,-0.16721 -0.0177,-0.0388 -0.0333,-0.0786 -0.0489,-0.11822 -0.0633,-0.13583 0.15015,-0.23527 0.21344,-0.0994 v 0 c 0.0151,0.0376 0.0293,0.0755 0.0462,0.11237 0.0249,0.0553 0.0497,0.11074 0.0761,0.16543 0.0238,0.0511 0.0495,0.10131 0.0763,0.1509 0.0257,0.0508 0.0528,0.10105 0.0815,0.15023 0.0303,0.0505 0.0599,0.10147 0.0929,0.15027 0.0309,0.0474 0.0618,0.0949 0.0955,0.14036 0.0323,0.044 0.0647,0.0879 0.10028,0.12935 0.0348,0.0394 0.0699,0.0785 0.10745,0.11537 0.0337,0.034 0.0689,0.0666 0.10501,0.0981 0.0347,0.0304 0.0691,0.0614 0.10679,0.0881 0.0385,0.0238 0.0803,0.0412 0.12425,0.0524 0.0513,0.011 0.10363,0.0165 0.15613,0.0143 0.0604,-0.002 0.12083,-0.006 0.18023,-0.0171 0.0617,-0.0119 0.12261,-0.0266 0.18143,-0.0491 0.0605,-0.0223 0.12014,-0.047 0.17727,-0.0771 0.01,-0.005 0.019,-0.01 0.0283,-0.0147 0.10522,-0.0571 -0.14608,0.0843 -0.0423,0.026 0.008,-0.005 0.0167,-0.01 0.0249,-0.0145 0.008,-0.005 0.0154,-0.009 0.023,-0.0138 0.0396,-0.0259 0.0785,-0.0528 0.11351,-0.0849 0.0238,-0.0228 0.0437,-0.049 0.0583,-0.0786 0.008,-0.0158 0.0151,-0.0335 0.008,-0.0509 -0.0132,-0.0217 -0.0313,-0.0348 -0.0561,-0.0417 -0.0377,-0.009 -0.0762,-0.0116 -0.11427,-0.002 -0.0559,0.0166 -0.20828,0.10208 0.003,-0.0152 -0.0435,0.0184 -0.0809,0.0484 -0.11314,0.0827 -0.0352,0.0302 -0.066,0.0641 -0.0892,0.10463 -0.0204,0.0371 -0.0387,0.0756 -0.0441,0.1181 -0.004,0.0391 -0.009,0.079 0,0.11771 0.008,0.0361 0.0267,0.0683 0.0499,0.097 0.028,0.0323 0.0608,0.0583 0.10011,0.076 0.0471,0.0217 0.0953,0.0414 0.14735,0.0474 0.058,0.007 0.11639,0.009 0.17455,0.002 0.0639,-0.008 0.12753,-0.0181 0.18912,-0.0375 0.0624,-0.0209 0.12428,-0.0438 0.18222,-0.0754 0.0698,-0.0389 0.003,-10e-4 -0.0644,0.0387 -0.009,0.005 0.0185,-0.01 0.0275,-0.0151 0.027,-0.0154 0.0532,-0.0322 0.0785,-0.0503 0.0437,-0.0317 0.0849,-0.0662 0.12097,-0.10657 0.0272,-0.0367 0.0535,-0.0741 0.0697,-0.11727 0.0132,-0.0358 0.023,-0.0734 0.0244,-0.11169 0.003,-0.0311 -0.003,-0.0627 -0.014,-0.092 -0.008,-0.0196 -0.0196,-0.038 -0.0389,-0.0487 -0.0159,-0.007 -0.0321,-0.006 -0.0471,0.003 -0.0744,0.0591 0.1864,-0.1074 0.0636,-0.039 -0.0228,0.0213 -0.0384,0.0451 -0.0498,0.0743 -0.0111,0.029 -0.0138,0.0576 -0.004,0.0876 0.01,0.0357 0.0262,0.0683 0.0511,0.0961 0.0301,0.0326 0.0658,0.0584 0.10657,0.0764 0.0497,0.0216 0.10152,0.0373 0.15431,0.0494 0.0556,0.0117 0.11157,0.0208 0.1687,0.0187 0.0542,-0.002 0.10856,-0.006 0.16142,-0.0192 0.0516,-0.0123 0.10208,-0.0278 0.14952,-0.052 0.0451,-0.0228 0.13112,-0.0805 -0.0531,0.0329 -0.0441,0.0271 0.10806,-0.0513 0.0605,-0.0335 0.0344,-0.0249 0.069,-0.0508 0.0961,-0.0839 0.0236,-0.027 0.0431,-0.0571 0.0536,-0.0916 0.008,-0.033 0.0161,-0.0658 0.0124,-0.10013 0,-0.0243 -0.008,-0.0469 -0.0241,-0.0656 -0.0151,-0.0148 -0.0332,-0.0242 -0.0548,-0.0245 -0.0143,7.9e-4 -0.0282,0.003 -0.0393,0.013 -0.003,0.002 -0.009,0.009 -0.006,0.008 0.0372,-0.0214 0.0732,-0.0448 0.1098,-0.0672 -0.0262,0.003 -0.045,0.0187 -0.0582,0.0412 -0.0143,0.0294 -0.0175,0.0603 -0.0106,0.0925 0.007,0.0388 0.019,0.0769 0.0412,0.10991 0.0265,0.037 0.0587,0.0688 0.0956,0.0954 0.041,0.0303 0.0837,0.0578 0.13033,0.0789 0.0455,0.0215 0.0919,0.0416 0.14142,0.0519 0.0456,0.0106 0.0917,0.0184 0.13867,0.0167 0.0453,-0.003 0.0901,-0.008 0.13348,-0.0223 0.0556,-0.0184 0.21495,-0.10639 0,0.0126 0.0401,-0.0161 0.0748,-0.043 0.1047,-0.074 0.0305,-0.0295 0.0538,-0.0643 0.0748,-0.10102 0.0164,-0.0347 0.0363,-0.0683 0.043,-0.10675 0.004,-0.0323 0.008,-0.0645 0.003,-0.097 -0.003,-0.0193 -0.008,-0.0383 -0.023,-0.0515 -0.0143,-0.0102 -0.0313,-0.0114 -0.0483,-0.007 -0.0513,0.0184 -0.15234,0.10353 0.0469,-0.0312 -0.0351,0.0149 -0.0648,0.0334 -0.0846,0.0676 -0.0222,0.0374 -0.0428,0.0765 -0.0534,0.11897 -0.008,0.0406 -0.0135,0.0817 -0.009,0.12314 0.005,0.0384 0.013,0.0762 0.0328,0.11024 0.0172,0.0304 0.0393,0.0571 0.0687,0.0768 0.0327,0.0207 0.0682,0.0373 0.10599,0.0464 0.0435,0.009 0.0878,0.0181 0.13256,0.0128 0.0469,-0.007 0.0926,-0.0197 0.1366,-0.0374 0.0517,-0.0227 0.23498,-0.12169 0.0236,-0.004 0.0495,-0.0273 0.0949,-0.0603 0.14134,-0.0923 0.0425,-0.0329 0.0845,-0.066 0.12332,-0.10336 0.031,-0.0308 0.0622,-0.0614 0.0872,-0.0975 0.0167,-0.0261 0.0333,-0.053 0.0399,-0.0837 0.003,-0.0216 0,-0.043 -0.0122,-0.0614 -0.0175,-0.0208 -0.0383,-0.0372 -0.0638,-0.0472 -0.0269,-0.009 -0.0555,-0.0132 -0.0837,-0.01 -0.0269,0.003 -0.0525,0.01 -0.074,0.0273 0.0796,-0.0446 0.15174,-0.0783 0.0766,-0.0555 -0.004,0.001 -0.0135,0.008 -0.0169,0.01 -0.0143,0.0119 -0.0206,0.0275 -0.0259,0.045 -0.003,0.0217 0.01,0.0416 0.0227,0.0586 0.022,0.0252 0.0483,0.0437 0.0806,0.0538 0.0501,0.0151 0.10136,0.0252 0.15364,0.0288 0.0617,0.004 0.12369,0.006 0.18547,0.002 0.0664,-0.005 0.13261,-0.012 0.19738,-0.0277 0.0692,-0.0162 0.13801,-0.034 0.20542,-0.0566 0.071,-0.0241 0.14116,-0.0505 0.20897,-0.0825 0.0414,-0.0196 0.30869,-0.15877 0.0897,-0.0399 0.0704,-0.0406 0.1403,-0.0821 0.20589,-0.13024 0.0643,-0.0472 0.12772,-0.0954 0.18672,-0.14918 0.0568,-0.056 0.11292,-0.11279 0.16431,-0.17384 0.0501,-0.0595 0.0939,-0.12383 0.13504,-0.18986 0.0381,-0.0622 0.0747,-0.12556 0.1043,-0.19241 0.0275,-0.0636 0.0546,-0.12769 0.0738,-0.19441 0.0188,-0.059 0.0351,-0.11923 0.044,-0.1806 0.009,-0.0555 0.0132,-0.11153 0.0151,-0.16773 0,-0.0498 -0.003,-0.0995 -0.009,-0.14889 -0.005,-0.043 -0.0111,-0.0861 -0.0198,-0.12851 -0.006,-0.0289 -0.0132,-0.0577 -0.0236,-0.0854 -0.0652,-0.13409 0.14555,-0.23649 0.21069,-0.1024 z"
         inkscape:connector-curvature="0" />
      <path
         style="opacity:1;fill:#666666;fill-opacity:1;stroke:none;stroke-width:1;stroke-miterlimit:4;stroke-dasharray:none;stroke-opacity:1;paint-order:stroke markers fill"
         id="path1422"
         d="m 660.74545,-114.34348 c -0.009,0.0714 -0.0137,0.14323 -0.023,0.21461 -0.0137,0.0928 -0.0249,0.18591 -0.0345,0.27921 -0.008,0.10905 -0.0214,0.21757 -0.0349,0.32609 -0.0143,0.114 -0.0249,0.22837 -0.0346,0.34283 -0.01,0.12035 -0.0172,0.24091 -0.0238,0.36149 -0.007,0.12476 -0.0116,0.24961 -0.0161,0.37447 -0.005,0.12769 -0.008,0.25541 -0.0109,0.38314 -0.003,0.12963 -0.005,0.25929 -0.007,0.38894 -0.003,0.13095 -0.003,0.2619 -0.005,0.39285 -0.003,0.13183 -0.003,0.26365 -0.003,0.39548 0,0.13242 -0.003,0.26483 -0.003,0.39724 -0.003,0.12558 0.005,0.25101 0.0117,0.37636 0.007,0.12816 0.0116,0.25638 0.0161,0.38462 0.003,0.12795 0.0148,0.25546 0.0243,0.38302 0.008,0.12249 0.022,0.24459 0.0381,0.36628 0.0153,0.11221 0.0367,0.22346 0.0617,0.33391 0.0222,0.10354 0.0577,0.20328 0.0951,0.30211 0.0383,0.0992 0.086,0.19429 0.13732,0.28733 0.0499,0.0867 0.10903,0.16722 0.17179,0.24497 0.0634,0.0746 0.13698,0.13947 0.21093,0.20333 0.0759,0.0619 0.16102,0.11133 0.24466,0.16195 0.085,0.0507 0.17674,0.0877 0.26964,0.12093 0.0919,0.0255 0.18507,0.0481 0.28,0.0579 0.0893,0.01 0.17905,0.004 0.26819,-0.004 0.0835,-0.006 0.15549,-0.0427 0.23135,-0.0733 0.0842,-0.0523 0.24783,-0.13884 -0.14412,0.0753 -0.10382,0.0567 0.0906,-0.0519 0.10379,-0.0598 0.0657,-0.0393 0.11565,-0.0959 0.15984,-0.15736 0.0378,-0.0527 0.0637,-0.11188 0.0804,-0.17425 0.003,-0.0178 0.0103,-0.0407 -0.006,-0.0534 -0.0204,-0.0113 -0.04,-0.007 -0.0616,-0.006 -0.0254,0.006 -0.008,0.0282 -0.0151,0.0416 -0.006,0.0102 -0.0177,0.0154 -0.0238,0.0253 0.38415,-0.2679 0.27321,-0.15678 0.18405,-0.10985 -0.094,0.28346 -0.53941,0.13577 -0.44543,-0.14768 v 0 c 0.0879,-0.0923 0.20365,-0.14059 0.31496,-0.20848 0.0796,-0.0232 0.15619,-0.0284 0.23585,0.003 0.0778,0.0288 0.14727,0.0723 0.19881,0.1386 0.0529,0.0768 0.086,0.16141 0.0835,0.25625 -0.007,0.1021 -0.0332,0.20018 -0.0794,0.29195 -0.0503,0.093 -0.10676,0.18292 -0.18325,0.25694 -0.14232,0.13081 -0.31808,0.22966 -0.50231,0.28784 -0.10012,0.0319 -0.20444,0.0465 -0.30945,0.0492 -0.10761,0.003 -0.21559,-0.002 -0.32168,-0.0216 -0.11176,-0.0224 -0.22342,-0.0479 -0.3297,-0.09 -0.10716,-0.0436 -0.21222,-0.0924 -0.30996,-0.15467 -0.0961,-0.0603 -0.19333,-0.11966 -0.27779,-0.19609 -0.0852,-0.0761 -0.16999,-0.15314 -0.24172,-0.24252 -0.0717,-0.0909 -0.13991,-0.18443 -0.19738,-0.28517 -0.0578,-0.10471 -0.11152,-0.21165 -0.15547,-0.32301 -0.0418,-0.11017 -0.0828,-0.22092 -0.10898,-0.33611 -0.029,-0.118 -0.0519,-0.23753 -0.0698,-0.35773 -0.0198,-0.12758 -0.0331,-0.25638 -0.0436,-0.385 -0.01,-0.13122 -0.0225,-0.26232 -0.027,-0.39383 -0.004,-0.12692 -0.009,-0.25383 -0.0153,-0.38067 -0.006,-0.13032 -0.0159,-0.26069 -0.0151,-0.39119 0,-0.13263 0,-0.26525 0.003,-0.39787 0,-0.13214 0.003,-0.26428 0.003,-0.39642 0,-0.13142 0.003,-0.26284 0.005,-0.39426 0.003,-0.13036 0.004,-0.26072 0.007,-0.39107 0.003,-0.12881 0.006,-0.25761 0.0103,-0.38638 0.004,-0.12652 0.009,-0.25304 0.0153,-0.37948 0.006,-0.1232 0.0132,-0.24638 0.0225,-0.36939 0.009,-0.11811 0.0193,-0.23617 0.0331,-0.35385 0.0127,-0.10659 0.0292,-0.21271 0.0361,-0.31988 0.009,-0.0972 0.019,-0.19431 0.0333,-0.29088 0.0108,-0.07 0.019,-0.13997 0.0251,-0.2106 -0.0401,-0.29549 0.42424,-0.35848 0.46432,-0.063 z"
         inkscape:connector-curvature="0" />
    </g>
    <rect
       y="246.56589"
       x="-999.93451"
       height="33.866665"
       width="33.866665"
       id="rect1299-6"
       style="display:inline;opacity:1;fill:url(#linearGradient2595-4);fill-opacity:1;stroke:none;stroke-width:0.17875542;stroke-miterlimit:4;stroke-dasharray:none;paint-order:stroke markers fill" />
    <circle
       style="opacity:1;fill:#2a465a;fill-opacity:1;stroke:none;stroke-width:2.37999988;stroke-linecap:square;stroke-linejoin:miter;stroke-miterlimit:4;stroke-dasharray:none;stroke-opacity:1;paint-order:stroke markers fill"
       id="path905"
       cx="-984.34302"
       cy="286.19669"
       r="1.6536458" />
    <circle
       r="1.6536458"
       cy="286.19669"
       cx="-979.90179"
       id="circle907"
       style="opacity:1;fill:#151b29;fill-opacity:1;stroke:none;stroke-width:2.37999988;stroke-linecap:square;stroke-linejoin:miter;stroke-miterlimit:4;stroke-dasharray:none;stroke-opacity:1;paint-order:stroke markers fill" />
    <rect
       style="display:inline;opacity:1;fill:#917c6f;fill-opacity:1;stroke:none;stroke-width:2.43907213;stroke-linecap:square;stroke-linejoin:miter;stroke-miterlimit:4;stroke-dasharray:none;stroke-opacity:1;paint-order:stroke markers fill"
       id="rect3815"
       width="33.866665"
       height="33.866665"
       x="114.28294"
       y="195.66669" />
    <g
       transform="translate(-1229.3739,180.51038)"
       style="display:inline"
       id="g4048">
      <path
         style="opacity:1;fill:#ca5e5e;fill-opacity:1;stroke:#4d4d4d;stroke-width:1;stroke-linecap:square;stroke-linejoin:miter;stroke-miterlimit:4;stroke-dasharray:none;stroke-opacity:1;paint-order:stroke markers fill"
         d="m 1436.8057,-85.97301 v -8.613868"
         id="path4042"
         inkscape:connector-curvature="0"
         sodipodi:nodetypes="cc" />
      <path
         transform="matrix(0.72422578,0,0,1,396.23397,0)"
         sodipodi:type="star"
         style="opacity:1;fill:#4d4d4d;fill-opacity:1;stroke:none;stroke-width:2.78958201;stroke-linecap:square;stroke-linejoin:miter;stroke-miterlimit:4;stroke-dasharray:none;stroke-opacity:1;paint-order:stroke markers fill"
         id="path4044"
         sodipodi:sides="3"
         sodipodi:cx="1436.8057"
         sodipodi:cy="-94.826859"
         sodipodi:r1="1.7626173"
         sodipodi:r2="1.5264715"
         sodipodi:arg1="-1.5707963"
         sodipodi:arg2="-0.52359875"
         inkscape:flatsided="true"
         inkscape:rounded="0"
         inkscape:randomized="0"
         d="m 1436.8057,-96.589476 1.5264,2.643926 -3.0529,0 z"
         inkscape:transform-center-x="3.4644062e-05"
         inkscape:transform-center-y="8.6848279e-06" />
    </g>
    <g
       id="g1081">
      <path
         inkscape:connector-curvature="0"
         id="path3858"
         d="m 175.57332,78.596219 c 0,-8.06979 10.5833,-8.20208 10.5833,-1.05833"
         style="display:inline;opacity:1;fill:none;fill-opacity:1;stroke:#ca5e5e;stroke-width:2.37999988;stroke-linecap:square;stroke-linejoin:miter;stroke-miterlimit:4;stroke-dasharray:none;stroke-opacity:1;paint-order:stroke markers fill" />
      <g
         transform="matrix(0.87925119,0,0,0.87925119,-1081.6782,167.89989)"
         id="g3856"
         style="display:inline">
        <circle
           r="21.328108"
           cy="-82.380486"
           cx="1436.8057"
           id="circle3851"
           style="opacity:1;fill:#b43737;fill-opacity:1;stroke:none;stroke-width:2.05545449;stroke-linecap:square;stroke-linejoin:miter;stroke-miterlimit:4;stroke-dasharray:none;stroke-opacity:1;paint-order:stroke markers fill" />
        <circle
           style="opacity:1;fill:#ca5e5e;fill-opacity:1;stroke:none;stroke-width:2.05545449;stroke-linecap:square;stroke-linejoin:miter;stroke-miterlimit:4;stroke-dasharray:none;stroke-opacity:1;paint-order:stroke markers fill"
           id="path3837"
           cx="1436.8057"
           cy="-83.107574"
           r="21.328108" />
        <circle
           r="18.096575"
           cy="-83.107574"
           cx="1436.8057"
           id="circle3839"
           style="opacity:1;fill:url(#radialGradient3847);fill-opacity:1;stroke:none;stroke-width:1.74402201;stroke-linecap:square;stroke-linejoin:miter;stroke-miterlimit:4;stroke-dasharray:none;stroke-opacity:1;paint-order:stroke markers fill" />
        <path
           inkscape:connector-curvature="0"
           id="circle3912"
           d="m 1437.1205,-103.6079 a 20.863226,20.863226 0 0 0 -20.8633,20.86276 20.863226,20.863226 0 0 0 7.8413,16.275454 20.863226,20.863226 0 0 1 -6.7375,-15.318784 20.863226,20.863226 0 0 1 20.8634,-20.86276 20.863226,20.863226 0 0 1 13.0219,4.587866 20.863226,20.863226 0 0 0 -14.1258,-5.544536 z"
           style="opacity:1;fill:#d87b5d;fill-opacity:1;stroke:none;stroke-width:2.01065254;stroke-linecap:square;stroke-linejoin:miter;stroke-miterlimit:4;stroke-dasharray:none;stroke-opacity:1;paint-order:stroke markers fill" />
      </g>
      <g
         id="g3951"
         style="display:inline"
         transform="translate(-1255.1708,180.51038)">
        <circle
           style="opacity:1;fill:#4d4d4d;fill-opacity:1;stroke:none;stroke-width:2.37999988;stroke-linecap:square;stroke-linejoin:miter;stroke-miterlimit:4;stroke-dasharray:none;stroke-opacity:1;paint-order:stroke markers fill"
           id="path3860"
           cx="1436.3003"
           cy="-106.61051"
           r="1.8520833" />
        <path
           style="opacity:1;fill:#8a8373;fill-opacity:1;stroke:none;stroke-width:8.9952755;stroke-linecap:square;stroke-linejoin:miter;stroke-miterlimit:4;stroke-dasharray:none;stroke-opacity:1;paint-order:stroke markers fill"
           d="m 9322,-1762.25 a 7,7 0 0 0 -7,7 7,7 0 0 0 0.457,2.4844 7,7 0 0 1 6.543,-4.5352 7,7 0 0 1 6.541,4.5196 7,7 0 0 0 0.459,-2.4688 7,7 0 0 0 -7,-7 z"
           transform="matrix(0.26458333,0,0,0.26458333,-1030.1455,357.79938)"
           id="circle3864"
           inkscape:connector-curvature="0" />
        <circle
           style="opacity:1;fill:#e0e6b4;fill-opacity:1;stroke:none;stroke-width:2.37999988;stroke-linecap:square;stroke-linejoin:miter;stroke-miterlimit:4;stroke-dasharray:none;stroke-opacity:1;paint-order:stroke markers fill"
           id="path3869"
           cx="1435.4492"
           cy="-107.34619"
           r="0.60803819" />
      </g>
      <g
         style="display:inline;fill:#ca5e5e;fill-opacity:1"
         id="g3935"
         transform="translate(-1255.1708,180.51038)">
        <g
           style="fill:#ca5e5e;fill-opacity:1"
           id="g3878"
           transform="translate(0,0.29008905)">
          <rect
             y="-100.45895"
             x="1436.012"
             height="3.4395833"
             width="1.5875"
             id="rect3872"
             style="opacity:1;fill:#ca5e5e;fill-opacity:1;stroke:none;stroke-width:2.37999988;stroke-linecap:square;stroke-linejoin:miter;stroke-miterlimit:4;stroke-dasharray:none;stroke-opacity:1;paint-order:stroke markers fill" />
          <rect
             style="opacity:1;fill:#ca5e5e;fill-opacity:1;stroke:none;stroke-width:2.37999988;stroke-linecap:square;stroke-linejoin:miter;stroke-miterlimit:4;stroke-dasharray:none;stroke-opacity:1;paint-order:stroke markers fill"
             id="rect3874"
             width="1.5875"
             height="3.4395833"
             x="1436.012"
             y="-74.926651" />
        </g>
        <g
           style="fill:#ca5e5e;fill-opacity:1"
           transform="rotate(90,1436.6607,-85.827962)"
           id="g3884">
          <rect
             style="opacity:1;fill:#ca5e5e;fill-opacity:1;stroke:none;stroke-width:2.37999988;stroke-linecap:square;stroke-linejoin:miter;stroke-miterlimit:4;stroke-dasharray:none;stroke-opacity:1;paint-order:stroke markers fill"
             id="rect3880"
             width="1.5875"
             height="3.4395833"
             x="1436.012"
             y="-100.45895" />
          <rect
             y="-74.926651"
             x="1436.012"
             height="3.4395833"
             width="1.5875"
             id="rect3882"
             style="opacity:1;fill:#ca5e5e;fill-opacity:1;stroke:none;stroke-width:2.37999988;stroke-linecap:square;stroke-linejoin:miter;stroke-miterlimit:4;stroke-dasharray:none;stroke-opacity:1;paint-order:stroke markers fill" />
        </g>
        <g
           style="fill:#ca5e5e;fill-opacity:1"
           transform="matrix(0.50518148,0.29166666,-0.5,0.8660254,667.97158,-430.29645)"
           id="g3890">
          <path
             style="opacity:1;fill:#ca5e5e;fill-opacity:1;stroke:none;stroke-width:2.37999988;stroke-linecap:square;stroke-linejoin:miter;stroke-miterlimit:4;stroke-dasharray:none;stroke-opacity:1;paint-order:stroke markers fill"
             d="m 1436.012,-100.45895 h 1.5875 v 1.785941 h -1.5875 z"
             id="rect3886"
             inkscape:connector-curvature="0"
             sodipodi:nodetypes="ccccc" />
          <path
             style="opacity:1;fill:#ca5e5e;fill-opacity:1;stroke:none;stroke-width:2.37999988;stroke-linecap:square;stroke-linejoin:miter;stroke-miterlimit:4;stroke-dasharray:none;stroke-opacity:1;paint-order:stroke markers fill"
             d="m 1436.012,-73.273005 h 1.5875 v 1.785937 h -1.5875 z"
             id="rect3888"
             inkscape:connector-curvature="0"
             sodipodi:nodetypes="ccccc" />
        </g>
        <g
           style="fill:#ca5e5e;fill-opacity:1"
           id="g3898"
           transform="matrix(0.29166667,0.50518148,-0.8660254,0.5,943.28259,-768.54407)">
          <path
             sodipodi:nodetypes="ccccc"
             inkscape:connector-curvature="0"
             id="path3894"
             d="m 1436.012,-100.45895 h 1.5875 v 1.785941 h -1.5875 z"
             style="opacity:1;fill:#ca5e5e;fill-opacity:1;stroke:none;stroke-width:2.37999988;stroke-linecap:square;stroke-linejoin:miter;stroke-miterlimit:4;stroke-dasharray:none;stroke-opacity:1;paint-order:stroke markers fill" />
          <path
             sodipodi:nodetypes="ccccc"
             inkscape:connector-curvature="0"
             id="path3896"
             d="m 1436.012,-73.273005 h 1.5875 v 1.785937 h -1.5875 z"
             style="opacity:1;fill:#ca5e5e;fill-opacity:1;stroke:none;stroke-width:2.37999988;stroke-linecap:square;stroke-linejoin:miter;stroke-miterlimit:4;stroke-dasharray:none;stroke-opacity:1;paint-order:stroke markers fill" />
        </g>
        <g
           style="fill:#ca5e5e;fill-opacity:1"
           id="g3904"
           transform="matrix(-0.29166666,0.50518148,-0.8660254,-0.5,1781.4193,-854.51709)">
          <path
             sodipodi:nodetypes="ccccc"
             inkscape:connector-curvature="0"
             id="path3900"
             d="m 1436.012,-100.45895 h 1.5875 v 1.785941 h -1.5875 z"
             style="opacity:1;fill:#ca5e5e;fill-opacity:1;stroke:none;stroke-width:2.37999988;stroke-linecap:square;stroke-linejoin:miter;stroke-miterlimit:4;stroke-dasharray:none;stroke-opacity:1;paint-order:stroke markers fill" />
          <path
             sodipodi:nodetypes="ccccc"
             inkscape:connector-curvature="0"
             id="path3902"
             d="m 1436.012,-73.273005 h 1.5875 v 1.785937 h -1.5875 z"
             style="opacity:1;fill:#ca5e5e;fill-opacity:1;stroke:none;stroke-width:2.37999988;stroke-linecap:square;stroke-linejoin:miter;stroke-miterlimit:4;stroke-dasharray:none;stroke-opacity:1;paint-order:stroke markers fill" />
        </g>
        <g
           style="fill:#ca5e5e;fill-opacity:1"
           transform="matrix(-0.50518148,0.29166667,-0.5,-0.8660254,2119.6669,-579.20608)"
           id="g3910">
          <path
             style="opacity:1;fill:#ca5e5e;fill-opacity:1;stroke:none;stroke-width:2.37999988;stroke-linecap:square;stroke-linejoin:miter;stroke-miterlimit:4;stroke-dasharray:none;stroke-opacity:1;paint-order:stroke markers fill"
             d="m 1436.012,-100.45895 h 1.5875 v 1.785941 h -1.5875 z"
             id="path3906"
             inkscape:connector-curvature="0"
             sodipodi:nodetypes="ccccc" />
          <path
             style="opacity:1;fill:#ca5e5e;fill-opacity:1;stroke:none;stroke-width:2.37999988;stroke-linecap:square;stroke-linejoin:miter;stroke-miterlimit:4;stroke-dasharray:none;stroke-opacity:1;paint-order:stroke markers fill"
             d="m 1436.012,-73.273005 h 1.5875 v 1.785937 h -1.5875 z"
             id="path3908"
             inkscape:connector-curvature="0"
             sodipodi:nodetypes="ccccc" />
        </g>
      </g>
      <g
         transform="translate(-1254.6654,201.43797)"
         id="g3959"
         style="display:inline">
        <circle
           r="1.8520833"
           cy="-106.61051"
           cx="1436.3003"
           id="circle3953"
           style="opacity:1;fill:#4d4d4d;fill-opacity:1;stroke:none;stroke-width:2.37999988;stroke-linecap:square;stroke-linejoin:miter;stroke-miterlimit:4;stroke-dasharray:none;stroke-opacity:1;paint-order:stroke markers fill" />
        <path
           inkscape:connector-curvature="0"
           id="path3955"
           transform="matrix(0.26458333,0,0,0.26458333,-1030.1455,357.79938)"
           d="m 9322,-1762.25 a 7,7 0 0 0 -7,7 7,7 0 0 0 0.457,2.4844 7,7 0 0 1 6.543,-4.5352 7,7 0 0 1 6.541,4.5196 7,7 0 0 0 0.459,-2.4688 7,7 0 0 0 -7,-7 z"
           style="opacity:1;fill:#8a8373;fill-opacity:1;stroke:none;stroke-width:8.9952755;stroke-linecap:square;stroke-linejoin:miter;stroke-miterlimit:4;stroke-dasharray:none;stroke-opacity:1;paint-order:stroke markers fill" />
        <circle
           r="0.60803819"
           cy="-107.34619"
           cx="1435.4492"
           id="circle3957"
           style="opacity:1;fill:#e0e6b4;fill-opacity:1;stroke:none;stroke-width:2.37999988;stroke-linecap:square;stroke-linejoin:miter;stroke-miterlimit:4;stroke-dasharray:none;stroke-opacity:1;paint-order:stroke markers fill" />
      </g>
      <g
         id="g3992"
         style="display:inline"
         transform="translate(-1255.1708,180.51038)">
        <path
           style="opacity:1;fill:#ca5e5e;fill-opacity:1;stroke:none;stroke-width:2;stroke-linecap:square;stroke-linejoin:miter;stroke-miterlimit:4;stroke-dasharray:none;stroke-opacity:1;paint-order:stroke markers fill"
           d="m 1431.127,-94.048993 c -0.7889,0.0217 -1.3687,0.685571 -1.7049,1.338394 -0.4225,0.879955 -0.3815,1.884954 -0.3186,2.8339 0.1039,0.374241 0.2767,0.734539 0.26,1.131556 0.1128,0.894172 0.3102,1.864702 1.0011,2.503036 0.4415,0.397867 1.1509,0.448312 1.6341,0.09514 0.4854,-0.276804 0.8337,-0.774194 0.9144,-1.328417 0.3491,-1.362884 0.3953,-2.795789 0.1937,-4.185256 -0.143,-0.864198 -0.5349,-1.783965 -1.3443,-2.214277 -0.1965,-0.101612 -0.4139,-0.165413 -0.6355,-0.174076 z m -0.1747,0.430451 c 0.7376,-0.0089 1.2791,0.647901 1.5044,1.290937 0.3779,1.076172 0.3394,2.239916 0.2733,3.361747 -0.079,0.69614 -0.1876,1.40549 -0.4658,2.051841 -0.2769,0.486028 -0.9884,0.780388 -1.4669,0.402285 -0.6715,-0.491468 -0.8289,-1.372558 -0.9428,-2.143983 -0.1565,-1.061812 -0.3261,-2.134478 -0.2462,-3.210773 0.1365,-0.691957 0.5134,-1.402287 1.1732,-1.715724 0.055,-0.01937 0.1122,-0.03497 0.1708,-0.03633 z"
           id="path3977"
           inkscape:connector-curvature="0" />
        <path
           style="opacity:1;fill:#ca5e5e;fill-opacity:1;stroke:none;stroke-width:7.55905533;stroke-linecap:square;stroke-linejoin:miter;stroke-miterlimit:4;stroke-dasharray:none;stroke-opacity:1;paint-order:stroke markers fill"
           d="m 9298.5879,-1693.3281 c -0.2317,0.016 -0.462,0.056 -0.6914,0.1172 -0.2351,0.062 -0.4682,0.1187 -0.6836,0.2382 -0.4527,0.2527 -0.2863,0.1629 -0.4805,0.2735 -0.022,0.01 -0.027,0.013 -0.041,0.02 -0.8638,-0.093 -1.1617,0.9333 -0.7344,1.4551 -0.096,0.3994 -0.1019,0.8285 0.027,1.25 0.569,3.78 0.7545,8.1757 3.6855,10.998 0.2777,0.2811 0.6133,0.4664 0.9649,0.6036 0.049,0.1774 0.1491,0.3452 0.3496,0.4707 0.057,0.017 0.1132,0.033 0.1699,0.049 0.4018,0.1158 0.823,0.1472 1.2285,0.023 0.6818,-0.2135 1.2857,-0.6473 1.7442,-1.1875 0.2524,-0.3257 0.4857,-0.6623 0.6445,-1.0469 0.1735,-0.3827 0.2987,-0.7833 0.4121,-1.1875 0.1096,-0.4449 0.2031,-0.8909 0.2598,-1.3457 0.057,-0.5065 0.096,-1.0198 0.096,-1.5312 -0.023,-0.4827 -0.051,-0.9647 -0.1036,-1.4453 -0.053,-0.4644 -0.1173,-0.9286 -0.2382,-1.3809 -0.1161,-0.4074 -0.2628,-0.8021 -0.4102,-1.1992 -0.1584,-0.3936 -0.3485,-0.7718 -0.5488,-1.1465 -0.2151,-0.3599 -0.4318,-0.7182 -0.6699,-1.0644 -0.2502,-0.3396 -0.5255,-0.6624 -0.8204,-0.9629 -0.3167,-0.2845 -0.6164,-0.5869 -0.9453,-0.8574 -0.37,-0.2767 -0.7655,-0.513 -1.1836,-0.711 -0.4308,-0.1766 -0.8618,-0.3671 -1.332,-0.4101 -0.2349,-0.031 -0.4675,-0.038 -0.6992,-0.022 z"
           transform="matrix(0.26458333,0,0,0.26458333,-1030.1455,357.79938)"
           id="path3985"
           inkscape:connector-curvature="0" />
      </g>
      <g
         transform="translate(-1243.7275,180.51038)"
         id="g3998"
         style="display:inline">
        <path
           inkscape:connector-curvature="0"
           id="path3994"
           d="m 1431.127,-94.048993 c -0.7889,0.0217 -1.3687,0.685571 -1.7049,1.338394 -0.4225,0.879955 -0.3815,1.884954 -0.3186,2.8339 0.1039,0.374241 0.2767,0.734539 0.26,1.131556 0.1128,0.894172 0.3102,1.864702 1.0011,2.503036 0.4415,0.397867 1.1509,0.448312 1.6341,0.09514 0.4854,-0.276804 0.8337,-0.774194 0.9144,-1.328417 0.3491,-1.362884 0.3953,-2.795789 0.1937,-4.185256 -0.143,-0.864198 -0.5349,-1.783965 -1.3443,-2.214277 -0.1965,-0.101612 -0.4139,-0.165413 -0.6355,-0.174076 z m -0.1747,0.430451 c 0.7376,-0.0089 1.2791,0.647901 1.5044,1.290937 0.3779,1.076172 0.3394,2.239916 0.2733,3.361747 -0.079,0.69614 -0.1876,1.40549 -0.4658,2.051841 -0.2769,0.486028 -0.9884,0.780388 -1.4669,0.402285 -0.6715,-0.491468 -0.8289,-1.372558 -0.9428,-2.143983 -0.1565,-1.061812 -0.3261,-2.134478 -0.2462,-3.210773 0.1365,-0.691957 0.5134,-1.402287 1.1732,-1.715724 0.055,-0.01937 0.1122,-0.03497 0.1708,-0.03633 z"
           style="opacity:1;fill:#ca5e5e;fill-opacity:1;stroke:none;stroke-width:2;stroke-linecap:square;stroke-linejoin:miter;stroke-miterlimit:4;stroke-dasharray:none;stroke-opacity:1;paint-order:stroke markers fill" />
        <path
           inkscape:connector-curvature="0"
           id="path3996"
           transform="matrix(0.26458333,0,0,0.26458333,-1030.1455,357.79938)"
           d="m 9298.5879,-1693.3281 c -0.2317,0.016 -0.462,0.056 -0.6914,0.1172 -0.2351,0.062 -0.4682,0.1187 -0.6836,0.2382 -0.4527,0.2527 -0.2863,0.1629 -0.4805,0.2735 -0.022,0.01 -0.027,0.013 -0.041,0.02 -0.8638,-0.093 -1.1617,0.9333 -0.7344,1.4551 -0.096,0.3994 -0.1019,0.8285 0.027,1.25 0.569,3.78 0.7545,8.1757 3.6855,10.998 0.2777,0.2811 0.6133,0.4664 0.9649,0.6036 0.049,0.1774 0.1491,0.3452 0.3496,0.4707 0.057,0.017 0.1132,0.033 0.1699,0.049 0.4018,0.1158 0.823,0.1472 1.2285,0.023 0.6818,-0.2135 1.2857,-0.6473 1.7442,-1.1875 0.2524,-0.3257 0.4857,-0.6623 0.6445,-1.0469 0.1735,-0.3827 0.2987,-0.7833 0.4121,-1.1875 0.1096,-0.4449 0.2031,-0.8909 0.2598,-1.3457 0.057,-0.5065 0.096,-1.0198 0.096,-1.5312 -0.023,-0.4827 -0.051,-0.9647 -0.1036,-1.4453 -0.053,-0.4644 -0.1173,-0.9286 -0.2382,-1.3809 -0.1161,-0.4074 -0.2628,-0.8021 -0.4102,-1.1992 -0.1584,-0.3936 -0.3485,-0.7718 -0.5488,-1.1465 -0.2151,-0.3599 -0.4318,-0.7182 -0.6699,-1.0644 -0.2502,-0.3396 -0.5255,-0.6624 -0.8204,-0.9629 -0.3167,-0.2845 -0.6164,-0.5869 -0.9453,-0.8574 -0.37,-0.2767 -0.7655,-0.513 -1.1836,-0.711 -0.4308,-0.1766 -0.8618,-0.3671 -1.332,-0.4101 -0.2349,-0.031 -0.4675,-0.038 -0.6992,-0.022 z"
           style="opacity:1;fill:#ca5e5e;fill-opacity:1;stroke:none;stroke-width:7.55905533;stroke-linecap:square;stroke-linejoin:miter;stroke-miterlimit:4;stroke-dasharray:none;stroke-opacity:1;paint-order:stroke markers fill" />
      </g>
      <path
         inkscape:connector-curvature="0"
         d="m 179.22172,98.311549 c -0.072,0.0855 -0.1353,0.17885 -0.1955,0.27323 -0.075,0.12168 -0.1357,0.25061 -0.1874,0.38351 -0.059,0.15262 -0.1032,0.3101 -0.138,0.46993 -0.038,0.16711 -0.05,0.33711 -0.055,0.50782 0,0.162291 0.019,0.320911 0.066,0.475771 0.043,0.15221 0.1243,0.28678 0.2158,0.41383 0.094,0.12174 0.2135,0.21699 0.3461,0.29282 0.1389,0.081 0.2935,0.10977 0.4503,0.13152 0.1721,0.0177 0.3414,0.003 0.5117,-0.0214 0.1734,-0.0259 0.3338,-0.0944 0.4881,-0.17449 0.068,-0.0582 0.3529,-0.17378 -0.016,0.005 -0.027,0.013 0.05,-0.0326 0.074,-0.0498 0.069,-0.0491 0.075,-0.0567 0.1396,-0.11117 0.1372,-0.12045 0.2509,-0.26242 0.3528,-0.41307 0.097,-0.1451 0.1673,-0.30433 0.2373,-0.46329 0.058,-0.132321 0.104,-0.269711 0.1353,-0.410841 0.022,-0.13158 0.027,-0.26522 0.032,-0.39828 0,-0.0484 0,-0.0968 0,-0.14502 0,-0.0292 0,-0.0382 0,-0.0381 0,0 0,0.008 0.01,0.0122 0.5097,-0.11575 0.4121,-0.19431 0.4382,0.0733 0.014,0.0993 0.032,0.1982 0.054,0.29623 0.024,0.12107 0.061,0.23913 0.099,0.35634 0.044,0.1338 0.092,0.266381 0.1488,0.395311 0.055,0.12126 0.1248,0.23326 0.1986,0.34341 0.069,0.10633 0.1561,0.19769 0.2515,0.28006 0.093,0.0856 0.2047,0.14682 0.3163,0.20513 0.1165,0.0565 0.2434,0.0869 0.37,0.11049 0.1344,0.0257 0.2714,0.0193 0.4068,0.008 0.1351,-0.0103 0.2677,-0.0399 0.3997,-0.0693 0.1231,-0.0344 0.2333,-0.10028 0.3476,-0.15555 0.1202,-0.0767 0.037,-0.0228 -0.1336,0.0721 -0.018,0.0103 0.037,-0.0217 0.055,-0.0328 0.055,-0.0342 0.1039,-0.0733 0.1536,-0.11477 0.1016,-0.085 0.1885,-0.18545 0.2687,-0.29044 0.077,-0.10956 0.1471,-0.22352 0.2081,-0.3425 0.059,-0.11858 0.09,-0.247861 0.1157,-0.377091 0.03,-0.14456 0.035,-0.29167 0.031,-0.43875 -0.01,-0.15968 -0.029,-0.31726 -0.06,-0.47382 -0.032,-0.15023 -0.075,-0.29803 -0.1304,-0.44132 -0.053,-0.13409 -0.1102,-0.26649 -0.179,-0.39312 -0.062,-0.10313 -0.1342,-0.20074 -0.2197,-0.28535 -0.043,-0.0359 -0.091,-0.12156 -0.1565,-0.11835 -0.2333,-0.18201 0.053,-0.54862 0.286,-0.36664 v 0 c 0.09,0.0516 0.1673,0.117 0.2356,0.1949 0.1,0.10604 0.1895,0.22177 0.2622,0.34814 0.075,0.13684 0.1386,0.27916 0.1955,0.42431 0.063,0.15846 0.1114,0.32171 0.1492,0.48789 0.034,0.16976 0.063,0.34036 0.071,0.51366 0.01,0.16706 0.01,0.33544 -0.021,0.50073 -0.025,0.15258 -0.056,0.305331 -0.1142,0.449361 -0.058,0.13611 -0.1306,0.26499 -0.2127,0.38836 -0.081,0.12951 -0.177,0.24823 -0.284,0.3574 -0.1761,0.16388 -0.3603,0.31096 -0.5905,0.39957 -0.1318,0.0632 -0.2694,0.11512 -0.4138,0.14071 -0.145,0.0286 -0.2919,0.0497 -0.4398,0.0551 -0.1591,0.005 -0.3188,-0.004 -0.4741,-0.0417 -0.1499,-0.0369 -0.2986,-0.0812 -0.4337,-0.15767 -0.1284,-0.0723 -0.2545,-0.14906 -0.3621,-0.25095 -0.1099,-0.10102 -0.2121,-0.21016 -0.2932,-0.33618 -0.083,-0.12354 -0.16,-0.25017 -0.2224,-0.38563 -0.061,-0.13695 -0.1135,-0.27805 -0.1605,-0.420591 -0.042,-0.12573 -0.081,-0.25275 -0.1083,-0.38261 -0.025,-0.10938 -0.044,-0.21942 -0.064,-0.3298 -0.031,-0.33944 -0.099,-0.23448 0.4309,-0.39161 0.037,0.0885 0.036,0.18597 0.041,0.2803 -0.01,0.14544 -0.01,0.29107 -0.027,0.43577 -0.023,0.16356 -0.072,0.32197 -0.1323,0.475481 -0.072,0.17306 -0.1444,0.34676 -0.2404,0.50813 -0.1039,0.17452 -0.2214,0.34118 -0.3675,0.48347 -0.2061,0.20842 -0.4515,0.36952 -0.7208,0.48708 -0.1841,0.0761 -0.3744,0.13475 -0.5739,0.15224 -0.1944,0.0191 -0.3904,0.0198 -0.5837,-0.0119 -0.1891,-0.0367 -0.3729,-0.0916 -0.5372,-0.19571 -0.1587,-0.10348 -0.305,-0.22413 -0.4178,-0.37804 -0.1077,-0.15187 -0.2045,-0.31266 -0.2577,-0.49257 -0.058,-0.18278 -0.093,-0.36936 -0.092,-0.56198 0,-0.187111 0.01,-0.373931 0.048,-0.557821 0.033,-0.17359 0.073,-0.34602 0.1365,-0.51138 0.051,-0.14979 0.1103,-0.29674 0.1907,-0.43331 0.06,-0.11198 0.1312,-0.21625 0.2048,-0.31954 0.061,-0.2893 0.5154,-0.19365 0.4546,0.0957 z"
         id="path4006"
         style="display:inline;opacity:1;fill:#ca5e5e;fill-opacity:1;stroke:none;stroke-width:2;stroke-linecap:square;stroke-linejoin:miter;stroke-miterlimit:4;stroke-dasharray:none;stroke-opacity:1;paint-order:stroke markers fill" />
      <path
         inkscape:connector-curvature="0"
         d="m 187.67832,97.340309 c 0.1037,-0.0608 0.2176,-0.10152 0.3263,-0.15229 0.1409,-0.0536 0.2853,-0.0974 0.4259,-0.15158 0.1383,-0.0481 0.2803,-0.084 0.4209,-0.12428 0.092,-0.0204 0.1809,-0.049 0.273,-0.0668 0.2853,0.0822 0.1561,0.53044 -0.1291,0.44829 v 0 c -0.086,0.0243 -0.1735,0.0443 -0.2591,0.0708 -0.1354,0.0398 -0.272,0.0758 -0.4033,0.12858 -0.137,0.0466 -0.2737,0.0957 -0.4058,0.15508 -0.1111,0.0475 -0.218,0.10446 -0.3301,0.14951 -0.291,-0.0517 -0.2097,-0.50908 0.081,-0.45736 z"
         id="path4008"
         style="display:inline;opacity:1;fill:#ca5e5e;fill-opacity:1;stroke:none;stroke-width:2;stroke-linecap:square;stroke-linejoin:miter;stroke-miterlimit:4;stroke-dasharray:none;stroke-opacity:1;paint-order:stroke markers fill" />
      <path
         inkscape:connector-curvature="0"
         d="m 187.96442,98.383539 c 0.1146,0.0246 0.2306,0.0409 0.3469,0.0548 0.1358,0.009 0.2695,0.0308 0.4039,0.0506 0.1342,0.0159 0.2679,0.0306 0.4011,0.0529 0.068,0.009 0.1341,0.0198 0.2005,0.0356 0.255,0.152 0.016,0.55261 -0.2388,0.40063 v 0 c -0.064,-0.01 -0.1271,-0.0196 -0.1906,-0.0297 -0.1326,-0.0196 -0.2664,-0.0297 -0.3987,-0.0515 -0.1331,-0.0196 -0.2669,-0.0319 -0.4004,-0.0487 -0.1254,-0.0183 -0.2507,-0.0391 -0.3731,-0.0724 -0.2496,-0.15854 0,-0.55076 0.2492,-0.39222 z"
         id="path4010"
         style="display:inline;opacity:1;fill:#ca5e5e;fill-opacity:1;stroke:none;stroke-width:2;stroke-linecap:square;stroke-linejoin:miter;stroke-miterlimit:4;stroke-dasharray:none;stroke-opacity:1;paint-order:stroke markers fill" />
      <path
         inkscape:connector-curvature="0"
         d="m 176.41132,98.165649 c -0.1294,-0.0225 -0.259,-0.0431 -0.3883,-0.067 -0.1669,-0.0292 -0.3356,-0.0449 -0.5044,-0.0586 -0.1801,-0.006 -0.3585,-0.0276 -0.5375,-0.0464 -0.1632,-0.0172 -0.3269,-0.029 -0.4907,-0.0385 -0.087,-0.006 -0.046,-0.006 -0.1224,0 -0.271,-0.12089 -0.081,-0.5467 0.1899,-0.42582 v 0 c 0.092,0.005 0.046,0.003 0.1386,0.008 0.1675,0.0114 0.3348,0.0251 0.5017,0.0436 0.1774,0.0193 0.3552,0.0303 0.5331,0.044 0.1765,0.0169 0.3528,0.0379 0.5271,0.0717 0.1343,0.0246 0.2701,0.0423 0.402,0.0784 0.2496,0.15853 0,0.55072 -0.2491,0.39219 z"
         id="path4012"
         style="display:inline;opacity:1;fill:#ca5e5e;fill-opacity:1;stroke:none;stroke-width:2;stroke-linecap:square;stroke-linejoin:miter;stroke-miterlimit:4;stroke-dasharray:none;stroke-opacity:1;paint-order:stroke markers fill" />
      <path
         inkscape:connector-curvature="0"
         d="m 176.45752,99.588369 c -0.1162,0.0308 -0.2353,0.0522 -0.3532,0.0766 -0.1441,0.0343 -0.2821,0.0884 -0.4232,0.13243 -0.1466,0.049 -0.282,0.12099 -0.4183,0.192 -0.021,0.0122 -0.042,0.0249 -0.063,0.0364 -0.3475,0.19013 0.8117,-0.462145 -0.1835,0.1052 -0.062,0.0352 0.1223,-0.0727 0.1845,-0.10734 0.019,-0.0106 -0.036,0.0233 -0.055,0.0348 -0.092,0.0552 -0.1781,0.11872 -0.2641,0.18227 -0.082,0.28504 -0.5295,0.15693 -0.448,-0.12814 v 0 c 0.082,-0.0922 0.1835,-0.160335 0.2818,-0.234155 0.1158,-0.0716 0.2348,-0.13819 0.3495,-0.21154 0.058,-0.037 -0.2383,0.13637 -0.1782,0.10316 0.1462,-0.0808 0.2885,-0.16951 0.4386,-0.24344 0.1484,-0.074 0.3037,-0.13388 0.4618,-0.1841 0.1481,-0.0499 0.2985,-0.0937 0.452,-0.12427 0.1239,-0.0262 0.2488,-0.0509 0.3743,-0.0673 0.2783,0.0998 0.1215,0.53713 -0.1568,0.43733 z"
         id="path4016"
         style="display:inline;opacity:1;fill:#ca5e5e;fill-opacity:1;stroke:none;stroke-width:2;stroke-linecap:square;stroke-linejoin:miter;stroke-miterlimit:4;stroke-dasharray:none;stroke-opacity:1;paint-order:stroke markers fill" />
      <path
         inkscape:connector-curvature="0"
         d="m 178.41722,100.0688 c -0.109,0.0375 -0.2067,0.10078 -0.3084,0.15391 -0.1303,0.0775 -0.019,0.0106 0.1288,-0.0721 0.019,-0.0108 -0.038,0.022 -0.057,0.0335 -0.059,0.0365 -0.1161,0.0773 -0.1743,0.11565 -0.1188,0.0822 -0.2275,0.17764 -0.3353,0.27347 -0.1174,0.10499 -0.2132,0.22982 -0.3096,0.35343 -0.099,0.12809 -0.1868,0.2639 -0.27,0.40243 -0.082,0.14148 -0.1494,0.2906 -0.2102,0.4421 -0.059,0.14613 -0.093,0.29958 -0.1224,0.45378 -0.029,0.14288 -0.04,0.28732 -0.028,0.43252 0.011,0.13827 0.055,0.26712 0.1192,0.38909 0.054,0.11793 0.1313,0.21368 0.2277,0.29806 0.094,0.0786 0.2042,0.13179 0.3206,0.16851 0.1209,0.0354 0.248,0.0437 0.3724,0.0259 0.1399,-0.0101 0.2659,-0.068 0.3874,-0.13359 0.14,-0.0835 0.033,-0.0185 -0.1103,0.0582 -0.023,0.0124 0.045,-0.0257 0.068,-0.039 0.07,-0.0422 0.136,-0.0892 0.2021,-0.13679 0.1314,-0.0941 0.2508,-0.20328 0.3635,-0.31885 0.1045,-0.10562 0.2055,-0.21402 0.3003,-0.32848 0.082,-0.10636 0.1524,-0.22092 0.2241,-0.33427 0.062,-0.10483 0.1149,-0.21447 0.158,-0.32822 0.039,-0.11051 0.064,-0.22545 0.081,-0.34136 -0.045,-0.29324 0.4155,-0.36444 0.4608,-0.0712 v 0 c -0.01,0.13819 -0.037,0.27421 -0.075,0.4073 -0.042,0.133 -0.095,0.26032 -0.1607,0.38338 -0.069,0.12758 -0.153,0.24614 -0.2289,0.36981 -0.091,0.127 -0.1924,0.24765 -0.3057,0.35581 -0.1178,0.12935 -0.2392,0.25638 -0.3772,0.36457 -0.209,0.16388 -0.4273,0.31713 -0.6744,0.42018 -0.157,0.0614 -0.3188,0.10346 -0.4886,0.10483 -0.1609,-0.003 -0.3211,-0.0225 -0.4719,-0.0817 -0.1446,-0.06 -0.2824,-0.13464 -0.3989,-0.24098 -0.1169,-0.10941 -0.2141,-0.23336 -0.2836,-0.37854 -0.08,-0.15245 -0.1403,-0.31279 -0.1586,-0.48527 -0.022,-0.17061 -0.02,-0.34184 0.012,-0.51131 0.028,-0.17113 0.061,-0.34205 0.1197,-0.50596 0.06,-0.16629 0.1301,-0.32875 0.2126,-0.48504 0.081,-0.15166 0.1738,-0.29763 0.2747,-0.43696 0.099,-0.13858 0.2025,-0.27522 0.3201,-0.39825 0.1082,-0.11194 0.2276,-0.2124 0.3479,-0.31109 0.186,-0.145181 0.3895,-0.268291 0.5991,-0.376191 0.1069,-0.0566 0.2177,-0.10417 0.33,-0.14867 0.2911,0.0517 0.2097,0.509091 -0.081,0.457361 z"
         id="path4034"
         style="display:inline;opacity:1;fill:#ca5e5e;fill-opacity:1;stroke:none;stroke-width:2;stroke-linecap:square;stroke-linejoin:miter;stroke-miterlimit:4;stroke-dasharray:none;stroke-opacity:1;paint-order:stroke markers fill" />
      <path
         inkscape:connector-curvature="0"
         d="m 178.48332,101.12714 c -0.1242,0.0928 0.2268,-0.1238 0.1721,-0.0893 -0.094,0.0591 -0.192,0.11109 -0.2876,0.16729 -0.062,0.0362 0.1235,-0.0717 0.1854,-0.10721 0.018,-0.0103 -0.036,0.0209 -0.054,0.0317 -0.019,0.0114 -0.037,0.0233 -0.056,0.035 -0.1194,0.0748 -0.2257,0.16711 -0.334,0.25654 -0.099,0.0834 -0.1909,0.17317 -0.2766,0.26982 -0.077,0.0921 -0.1409,0.19381 -0.2074,0.29343 -0.038,0.0606 -0.075,0.1221 -0.1116,0.18346 -0.026,0.29541 -0.4899,0.25495 -0.4642,-0.0405 v 0 c 0.034,-0.0703 0.077,-0.13483 0.1136,-0.2036 0.067,-0.11044 0.1391,-0.21749 0.212,-0.32414 0.084,-0.11396 0.1777,-0.22228 0.2871,-0.31295 0.1084,-0.10588 0.2276,-0.201 0.3472,-0.29382 0.1324,-0.0952 0.2606,-0.16536 0.4069,-0.25125 0.063,-0.0368 -0.2523,0.14494 -0.1884,0.11012 0.3464,-0.18872 0.1772,-0.12401 0.3362,-0.18195 0.291,0.0517 0.2097,0.50908 -0.081,0.45736 z"
         id="path4036"
         style="display:inline;opacity:1;fill:#ca5e5e;fill-opacity:1;stroke:none;stroke-width:2;stroke-linecap:square;stroke-linejoin:miter;stroke-miterlimit:4;stroke-dasharray:none;stroke-opacity:1;paint-order:stroke markers fill" />
    </g>
    <g
       id="g1033"
       transform="translate(32.411458)">
      <path
         sodipodi:nodetypes="cc"
         inkscape:connector-curvature="0"
         id="path3961"
         d="m 181.63492,94.537369 v -4.49792"
         style="display:inline;opacity:1;fill:#ca5e5e;fill-opacity:1;stroke:#4d4d4d;stroke-width:2;stroke-linecap:square;stroke-linejoin:miter;stroke-miterlimit:4;stroke-dasharray:none;stroke-opacity:1;paint-order:stroke markers fill" />
      <path
         inkscape:transform-center-y="8.6848279e-06"
         inkscape:transform-center-x="4.3352157e-05"
         d="m 181.63487,87.00786 1.52647,2.643926 -3.05294,0 z"
         inkscape:randomized="0"
         inkscape:rounded="0"
         inkscape:flatsided="true"
         sodipodi:arg2="-0.52359875"
         sodipodi:arg1="-1.5707963"
         sodipodi:r2="1.5264715"
         sodipodi:r1="1.7626173"
         sodipodi:cy="88.770477"
         sodipodi:cx="181.63487"
         sodipodi:sides="3"
         id="path4038"
         style="display:inline;opacity:1;fill:#4d4d4d;fill-opacity:1;stroke:none;stroke-width:2.78958201;stroke-linecap:square;stroke-linejoin:miter;stroke-miterlimit:4;stroke-dasharray:none;stroke-opacity:1;paint-order:stroke markers fill"
         sodipodi:type="star" />
    </g>
  </g>
</svg>
